<svg width="246" height="111" viewBox="0 0 246 111" fill="none" xmlns="http://www.w3.org/2000/svg">
<path d="M182.528 84.603H67.5498V12.6508C67.5498 12.251 67.7081 11.8673 67.9904 11.5834C68.2726 11.2996 68.6558 11.1385 69.0566 11.1353H180.997C181.399 11.1384 181.783 11.2991 182.068 11.5827C182.352 11.8662 182.513 12.2498 182.516 12.6508L182.528 84.603Z" fill="white"/>
<path d="M182.528 84.603H67.5498V12.6508C67.5498 12.251 67.7081 11.8673 67.9904 11.5834C68.2726 11.2996 68.6558 11.1385 69.0566 11.1353H180.997C181.399 11.1384 181.783 11.2991 182.068 11.5827C182.352 11.8662 182.513 12.2498 182.516 12.6508L182.528 84.603Z" stroke="#1A5336" stroke-width="3" stroke-miterlimit="10" stroke-linecap="square"/>
<path d="M193.615 89.9565H140.854V91.1788C140.848 91.4556 140.735 91.7193 140.538 91.9151C140.342 92.1109 140.078 92.2237 139.8 92.2299H110.278C110.001 92.2267 109.736 92.1145 109.541 91.9177C109.346 91.7209 109.237 91.4554 109.237 91.1788V89.9565H56.5617C55.8859 89.9565 55.2378 90.2244 54.76 90.7011C54.2821 91.1779 54.0137 91.8245 54.0137 92.4988V98.0354C54.0137 98.7097 54.2821 99.3563 54.76 99.8331C55.2378 100.31 55.8859 100.578 56.5617 100.578H193.566C194.215 100.578 194.839 100.32 195.298 99.8617C195.758 99.4033 196.016 98.7815 196.016 98.1332V92.3521C196.003 91.7207 195.746 91.1186 195.299 90.672C194.851 90.2255 194.248 89.9691 193.615 89.9565Z" fill="#1A5336"/>
<path d="M73.4493 32.002H38.4756V101.974H73.4493V32.002Z" fill="white"/>
<path d="M74.1102 100.666H41.7824C41.6587 100.663 41.5407 100.614 41.4521 100.528C41.3635 100.441 41.3108 100.325 41.3047 100.202V93.0396H74.5879V100.202C74.5879 100.325 74.5389 100.443 74.4516 100.53C74.3643 100.617 74.2459 100.666 74.1224 100.666H74.1102Z" fill="#00B624"/>
<path d="M74.8829 32.332H41.5996V35.9987H74.8829V32.332Z" fill="#00B624"/>
<path d="M38.5977 35.9985H74.8822" stroke="#1A5336" stroke-width="3" stroke-miterlimit="10"/>
<path d="M38.5977 91.231H74.8822" stroke="#1A5336" stroke-width="3" stroke-miterlimit="10"/>
<path d="M73.0202 29.6309H40.4597C39.4313 29.6309 38.5977 30.4626 38.5977 31.4886V98.8086C38.5977 99.8347 39.4313 100.666 40.4597 100.666H73.0202C74.0485 100.666 74.8822 99.8347 74.8822 98.8086V31.4886C74.8822 30.4626 74.0485 29.6309 73.0202 29.6309Z" stroke="#1A5336" stroke-width="3" stroke-miterlimit="10"/>
<path d="M75.9726 32.0022V99.3344C75.9726 100.307 75.5855 101.24 74.8963 101.927C74.2071 102.615 73.2723 103.001 72.2976 103.001H39.7004C38.7257 103.001 37.791 102.615 37.1018 101.927C36.4126 101.24 36.0254 100.307 36.0254 99.3344V32.0022C36.0254 31.0297 36.4126 30.0971 37.1018 29.4095C37.791 28.7218 38.7257 28.3355 39.7004 28.3355H72.2731C72.7557 28.3323 73.2342 28.424 73.6813 28.6053C74.1284 28.7866 74.5354 29.054 74.8789 29.3922C75.2224 29.7304 75.4958 30.1328 75.6835 30.5764C75.8711 31.02 75.9694 31.4962 75.9726 31.9777V32.0022Z" fill="white"/>
<path d="M73.9518 32.4297H41.4893V35.1797H73.9518V32.4297Z" fill="#00B624"/>
<path d="M73.5842 100.544H41.9914C41.8668 100.544 41.7471 100.496 41.6579 100.409C41.5686 100.322 41.5169 100.204 41.5137 100.08V92.9175H74.0497V100.08C74.0497 100.203 74.0006 100.321 73.9133 100.408C73.826 100.495 73.7076 100.544 73.5842 100.544Z" fill="#00B624"/>
<path d="M72.8981 29.5576H40.3376C39.3092 29.5576 38.4756 30.3894 38.4756 31.4154V98.7354C38.4756 99.7614 39.3092 100.593 40.3376 100.593H72.8981C73.9264 100.593 74.7601 99.7614 74.7601 98.7354V31.4154C74.7601 30.3894 73.9264 29.5576 72.8981 29.5576Z" stroke="#1A5336" stroke-width="3" stroke-miterlimit="10"/>
<path d="M38.4756 35.9131H74.7601" stroke="#1A5336" stroke-width="3" stroke-miterlimit="10"/>
<path d="M38.4756 89.9351H74.7601" stroke="#1A5336" stroke-width="3" stroke-miterlimit="10"/>
<path d="M61.1504 93.7729H52.0977V96.4496H61.1504V93.7729Z" fill="#1A5336"/>
<path d="M75.6067 31.5297V99.0514C75.6067 99.9242 75.2935 100.77 74.7196 101.447C74.1458 102.124 73.3465 102.591 72.4562 102.769H76.2964C77.1835 101.716 77.6701 100.405 77.6758 99.0514V31.5549C77.6806 30.0399 77.0646 28.584 75.9606 27.5013C74.8566 26.4187 73.3533 25.7963 71.7753 25.7686H65.427L65.4258 27.7535H71.7753C72.8019 27.7757 73.7785 28.1838 74.495 28.89C75.2115 29.5961 75.6107 30.544 75.6067 31.5297Z" fill="white"/>
<path d="M183.999 71.6758C192.598 71.6758 199.569 64.7208 199.569 56.1414C199.569 47.5619 192.598 40.6069 183.999 40.6069C175.401 40.6069 168.43 47.5619 168.43 56.1414C168.43 64.7208 175.401 71.6758 183.999 71.6758Z" fill="white"/>
<path d="M205.842 82.9933L191.436 68.4489L195.466 64.4033L209.872 78.9478L205.842 82.9933Z" fill="white" stroke="#1A5336" stroke-width="3" stroke-miterlimit="10"/>
<path d="M201.651 76.9311L204.003 74.6333L209.871 79.5222L207.005 81.9789L201.651 76.9311Z" fill="#1A5336"/>
<path d="M187.16 68.5225C194.014 68.5225 199.569 62.9793 199.569 56.1414C199.569 49.3035 194.014 43.7603 187.16 43.7603C180.307 43.7603 174.751 49.3035 174.751 56.1414C174.751 62.9793 180.307 68.5225 187.16 68.5225Z" fill="#00B624"/>
<path d="M184.012 44.2245C187.173 44.2018 190.214 45.433 192.465 47.6472C194.716 49.8614 195.994 52.8772 196.017 56.0312C196.039 59.1852 194.805 62.219 192.586 64.4653C190.367 66.7116 187.344 67.9863 184.183 68.009H184.012C180.85 68.0317 177.81 66.8005 175.558 64.5863C173.307 62.3721 172.029 59.3563 172.007 56.2023C171.984 53.0483 173.218 50.0144 175.437 47.7682C177.656 45.5219 180.679 44.2472 183.84 44.2245H184.012ZM184.012 40.5579H183.791C181.747 40.5715 179.725 40.9868 177.841 41.7801C175.957 42.5734 174.248 43.7291 172.812 45.1812C169.912 48.114 168.298 52.0762 168.326 56.1962C168.353 60.3162 170.02 64.2565 172.959 67.1503C175.899 70.0441 179.87 71.6543 183.999 71.6267H184.183C188.313 71.604 192.264 69.9456 195.168 67.0163C198.071 64.087 199.69 60.1267 199.667 56.0067C199.644 51.8868 197.982 47.9445 195.046 45.0473C192.11 42.1501 188.141 40.5352 184.012 40.5579Z" fill="#1A5336"/>
<path d="M119.852 31.0854H107.075V43.8332H119.852V31.0854Z" stroke="#1A5336" stroke-width="3" stroke-miterlimit="10" stroke-linecap="square"/>
<path d="M110.836 34.5443L114.658 39.1276L125.867 29.5576" stroke="#1A5336" stroke-width="3" stroke-miterlimit="10"/>
<path d="M128.941 36.4141H147.941" stroke="#1A5336" stroke-width="3" stroke-miterlimit="10"/>
<path d="M119.852 55.5298H107.075V68.2776H119.852V55.5298Z" stroke="#1A5336" stroke-width="3" stroke-miterlimit="10" stroke-linecap="square"/>
<path d="M128.941 60.8589H147.941" stroke="#1A5336" stroke-width="3" stroke-miterlimit="10"/>
</svg>
