<svg width="24" height="24" viewBox="0 0 24 24" fill="none" xmlns="http://www.w3.org/2000/svg">
<g clip-path="url(#clip0_6014_3139)">
<path d="M11.5078 9.49219H15V11.5078H11.5078V15H9.49219V11.5078H6V9.49219H9.49219V6H11.5078V9.49219ZM21 10.5C21 11.9531 20.7266 13.3125 20.1797 14.5781C19.6328 15.8594 18.8828 16.9766 17.9297 17.9297C16.9766 18.8828 15.8594 19.6328 14.5781 20.1797C13.3125 20.7266 11.9531 21 10.5 21C9.04688 21 7.6875 20.7266 6.42188 20.1797C5.14062 19.6328 4.02344 18.8828 3.07031 17.9297C2.11719 16.9766 1.36719 15.8594 0.820312 14.5781C0.273438 13.3125 0 11.9531 0 10.5C0 9.04688 0.273438 7.6875 0.820312 6.42188C1.36719 5.14062 2.11719 4.02344 3.07031 3.07031C4.02344 2.11719 5.14062 1.36719 6.42188 0.820312C7.6875 0.273438 9.04688 0 10.5 0C11.9531 0 13.3125 0.273438 14.5781 0.820312C15.8594 1.36719 16.9766 2.11719 17.9297 3.07031C18.8828 4.02344 19.6328 5.14062 20.1797 6.42188C20.7266 7.6875 21 9.04688 21 10.5ZM19.2422 10.5C19.2422 9.29688 19.0156 8.16406 18.5625 7.10156C18.1094 6.03906 17.4844 5.10938 16.6875 4.3125C15.8906 3.51562 14.9609 2.89062 13.8984 2.4375C12.8359 1.98438 11.7031 1.75781 10.5 1.75781C9.29688 1.75781 8.16406 1.98438 7.10156 2.4375C6.03906 2.89062 5.10938 3.51562 4.3125 4.3125C3.51562 5.10938 2.89062 6.03906 2.4375 7.10156C1.98438 8.16406 1.75781 9.29688 1.75781 10.5C1.75781 11.7031 1.98438 12.8359 2.4375 13.8984C2.89062 14.9609 3.51562 15.8906 4.3125 16.6875C5.10938 17.4844 6.03906 18.1094 7.10156 18.5625C8.16406 19.0156 9.29688 19.2422 10.5 19.2422C11.7031 19.2422 12.8359 19.0156 13.8984 18.5625C14.9609 18.1094 15.8906 17.4844 16.6875 16.6875C17.4844 15.8906 18.1094 14.9609 18.5625 13.8984C19.0156 12.8359 19.2422 11.7031 19.2422 10.5Z" fill="black"/>
</g>
<defs>
<clipPath id="clip0_6014_3139">
<rect width="24" height="24" fill="white"/>
</clipPath>
</defs>
</svg>
