<svg width="24" height="24" viewBox="0 0 24 24" fill="none" xmlns="http://www.w3.org/2000/svg">
<path d="M16.1484 12.0234V8.83594H18.9375L20.1562 12L16.1484 12.0234ZM7.54688 13.3594H9.5625V11.9062H11.0156V9.89062H9.5625V8.41406H7.54688V9.89062H6.07031V11.9062H7.54688V13.3594ZM22.6172 15.5391V16.5938L22.4766 16.7344H19.9688C19.9219 17.25 19.7031 17.6875 19.3125 18.0469C18.9375 18.3906 18.4922 18.5625 17.9766 18.5625C17.4609 18.5625 17.0078 18.3906 16.6172 18.0469C16.2422 17.6875 16.0312 17.2578 15.9844 16.7578V16.7344H7.94531C7.89844 17.25 7.67969 17.6875 7.28906 18.0469C6.91406 18.3906 6.46875 18.5625 5.95312 18.5625C5.42188 18.5625 4.96875 18.3906 4.59375 18.0469C4.21875 17.6875 4 17.2578 3.9375 16.7578V16.7344H1.52344L1.38281 16.5938V15.5391L1.52344 15.375H1.66406V5.46094H15.4922V7.17188H15.8203V6.82031C15.8203 6.42969 15.9531 6.10156 16.2188 5.83594C16.4844 5.57031 16.8125 5.4375 17.2031 5.4375H17.6484C18.0234 5.4375 18.3438 5.57031 18.6094 5.83594C18.875 6.10156 19.0078 6.42969 19.0078 6.82031V7.17188H19.125C19.375 7.1875 19.6016 7.25781 19.8047 7.38281C20.0078 7.50781 20.1719 7.67188 20.2969 7.875V7.89844C20.3125 7.92969 20.3594 8.03906 20.4375 8.22656C20.5156 8.41406 20.6562 8.73438 20.8594 9.1875C21.0781 9.70312 21.3125 10.2578 21.5625 10.8516C21.8125 11.4297 21.9922 11.8281 22.1016 12.0469C22.1484 12.1562 22.1797 12.2734 22.1953 12.3984C22.2266 12.5078 22.2422 12.6172 22.2422 12.7266C22.2422 12.7266 22.2422 12.7344 22.2422 12.75L22.2891 15.375H22.4766L22.6172 15.5391ZM16.8281 7.17188H18.0234V6.82031C18.0234 6.71094 17.9844 6.625 17.9062 6.5625C17.8281 6.48438 17.7422 6.44531 17.6484 6.44531H17.2031C17.0938 6.44531 17 6.48438 16.9219 6.5625C16.8594 6.625 16.8281 6.71094 16.8281 6.82031V7.17188ZM15.4922 8.17969L15.5156 15.375H16.3359C16.5234 15.1094 16.7578 14.9062 17.0391 14.7656C17.3203 14.6094 17.6328 14.5312 17.9766 14.5312C18.3203 14.5312 18.6328 14.6094 18.9141 14.7656C19.1953 14.9062 19.4297 15.1094 19.6172 15.375H21.2812V14.9766H20.3203V14.1328H21.2578V12.75C21.2578 12.7344 21.2578 12.7266 21.2578 12.7266C21.2578 12.6797 21.25 12.6406 21.2344 12.6094C21.2188 12.5625 21.2031 12.5156 21.1875 12.4688C21.0781 12.25 20.8984 11.8516 20.6484 11.2734C20.4141 10.6953 20.1797 10.1328 19.9453 9.58594C19.8047 9.25781 19.6797 8.97656 19.5703 8.74219C19.4766 8.50781 19.4219 8.375 19.4062 8.34375C19.375 8.29688 19.3359 8.25781 19.2891 8.22656C19.2422 8.19531 19.1875 8.17969 19.125 8.17969H15.4922ZM2.67188 15.375H4.28906C4.47656 15.1094 4.71094 14.9062 4.99219 14.7656C5.28906 14.6094 5.60938 14.5312 5.95312 14.5312C6.28125 14.5312 6.58594 14.6094 6.86719 14.7656C7.16406 14.9062 7.40625 15.1094 7.59375 15.375H14.5078V7.85156V7.17188V6.46875H2.67188V15.375ZM6.89062 16.7344C6.89062 16.7188 6.89062 16.6953 6.89062 16.6641C6.90625 16.6172 6.91406 16.5781 6.91406 16.5469C6.91406 16.2812 6.82031 16.0547 6.63281 15.8672C6.44531 15.6797 6.21875 15.5859 5.95312 15.5859C5.6875 15.5859 5.46094 15.6797 5.27344 15.8672C5.08594 16.0547 4.99219 16.2812 4.99219 16.5469C4.99219 16.8125 5.08594 17.0391 5.27344 17.2266C5.46094 17.4141 5.6875 17.5078 5.95312 17.5078C6.17188 17.5078 6.36719 17.4375 6.53906 17.2969C6.72656 17.1406 6.84375 16.9609 6.89062 16.7578V16.7344ZM18.9141 16.7344C18.9297 16.7188 18.9375 16.6953 18.9375 16.6641C18.9375 16.6172 18.9375 16.5781 18.9375 16.5469C18.9375 16.2812 18.8438 16.0547 18.6562 15.8672C18.4688 15.6797 18.2422 15.5859 17.9766 15.5859C17.7109 15.5859 17.4844 15.6797 17.2969 15.8672C17.1094 16.0547 17.0156 16.2812 17.0156 16.5469C17.0156 16.8125 17.1094 17.0391 17.2969 17.2266C17.4844 17.4141 17.7109 17.5078 17.9766 17.5078C18.2109 17.5078 18.4141 17.4375 18.5859 17.2969C18.7578 17.1406 18.8672 16.9609 18.9141 16.7578V16.7344Z" fill="black"/>
</svg>
