<svg width="24" height="24" viewBox="0 0 24 24" fill="none" xmlns="http://www.w3.org/2000/svg">
<path d="M1.63444 20.7346C1.54051 20.7346 1.46536 20.763 1.409 20.8198C1.35264 20.8765 1.32446 20.9523 1.32446 21.0469V21.7C1.32446 21.7947 1.35264 21.8704 1.409 21.9272C1.46536 21.9839 1.54051 22.0123 1.63444 22.0123H22.4313C22.5252 22.0123 22.591 21.9839 22.6286 21.9272C22.6849 21.8704 22.7131 21.7947 22.7131 21.7V21.0469C22.7131 20.9523 22.6849 20.8765 22.6286 20.8198C22.591 20.763 22.5252 20.7346 22.4313 20.7346H1.63444ZM23.6994 22.6654C23.7746 22.6654 23.8497 22.7033 23.9249 22.779C24 22.8547 24.0188 22.9399 23.9812 23.0346V23.716C23.9812 23.7918 23.953 23.858 23.8967 23.9148C23.8403 23.9716 23.7746 24 23.6994 24H0.30998C0.216047 24 0.1409 23.9716 0.0845401 23.9148C0.02818 23.858 0 23.7728 0 23.6593V22.9778C0 22.8831 0.02818 22.8074 0.0845401 22.7506C0.1409 22.6938 0.216047 22.6654 0.30998 22.6654H23.6994ZM22.7131 7.95679V8.60988C22.7131 8.70453 22.6849 8.78025 22.6286 8.83704C22.591 8.89383 22.5252 8.92222 22.4313 8.92222H1.63444C1.54051 8.92222 1.46536 8.89383 1.409 8.83704C1.35264 8.78025 1.32446 8.70453 1.32446 8.60988V7.95679C1.32446 7.86214 1.35264 7.78642 1.409 7.72963C1.46536 7.67284 1.54051 7.64444 1.63444 7.64444H22.4313C22.5252 7.64444 22.591 7.67284 22.6286 7.72963C22.6849 7.78642 22.7131 7.86214 22.7131 7.95679ZM0.648141 7.04815C0.572994 7.01029 0.507241 6.96296 0.450881 6.90617C0.394521 6.84938 0.366341 6.77366 0.366341 6.67901C0.366341 6.62222 0.375734 6.56543 0.394521 6.50864C0.432094 6.45185 0.479061 6.41399 0.535421 6.39506L11.892 1.05679C11.892 1.01893 11.9014 1 11.9202 1C11.9577 1 11.9953 1 12.0329 1C12.0517 1 12.0611 1 12.0611 1C12.0798 1 12.108 1 12.1456 1L23.5022 6.45185C23.5585 6.47078 23.6055 6.50864 23.6431 6.56543C23.6806 6.62222 23.6994 6.67901 23.6994 6.7358C23.6994 6.81152 23.6712 6.88724 23.6149 6.96296C23.5585 7.01975 23.4834 7.04815 23.3894 7.04815H0.648141ZM4.87515 20.0815H3.2407C3.14677 20.0815 3.07162 20.0531 3.01526 19.9963C2.97769 19.9395 2.9589 19.8638 2.9589 19.7691V9.94444C2.9589 9.86872 2.97769 9.80247 3.01526 9.74568C3.07162 9.68889 3.14677 9.66049 3.2407 9.66049H4.87515C4.96908 9.66049 5.03483 9.68889 5.07241 9.74568C5.12877 9.80247 5.15695 9.86872 5.15695 9.94444V19.7691C5.15695 19.8638 5.12877 19.9395 5.07241 19.9963C5.03483 20.0531 4.96908 20.0815 4.87515 20.0815ZM10.2857 20.0815H8.70763C8.63249 20.0815 8.56673 20.0531 8.51037 19.9963C8.45401 19.9395 8.42583 19.8638 8.42583 19.7691V9.94444C8.42583 9.86872 8.45401 9.80247 8.51037 9.74568C8.56673 9.68889 8.63249 9.66049 8.70763 9.66049H10.3421C10.436 9.66049 10.5112 9.68889 10.5675 9.74568C10.6239 9.80247 10.6521 9.86872 10.6521 9.94444V19.7691C10.6521 19.8638 10.6145 19.9395 10.5393 19.9963C10.4642 20.0531 10.3796 20.0815 10.2857 20.0815ZM15.6963 20.0815H14.0618C13.9679 20.0815 13.8928 20.0531 13.8364 19.9963C13.7988 19.9395 13.78 19.8638 13.78 19.7691V9.94444C13.78 9.86872 13.7988 9.80247 13.8364 9.74568C13.8928 9.68889 13.9679 9.66049 14.0618 9.66049H15.6963C15.7902 9.66049 15.856 9.68889 15.8935 9.74568C15.9499 9.80247 15.9781 9.86872 15.9781 9.94444V19.7691C15.9781 19.8638 15.9499 19.9395 15.8935 19.9963C15.856 20.0531 15.7902 20.0815 15.6963 20.0815ZM21.0505 20.0815H19.416C19.3221 20.0815 19.247 20.0531 19.1906 19.9963C19.1342 19.9395 19.1061 19.8638 19.1061 19.7691V9.94444C19.1061 9.86872 19.1342 9.80247 19.1906 9.74568C19.247 9.68889 19.3221 9.66049 19.416 9.66049H21.0505C21.1256 9.66049 21.1914 9.68889 21.2477 9.74568C21.3041 9.80247 21.3323 9.86872 21.3323 9.94444V19.7691C21.3323 19.8638 21.3041 19.9395 21.2477 19.9963C21.1914 20.0531 21.1256 20.0815 21.0505 20.0815Z" fill="black"/>
</svg>
