<svg width="24" height="24" viewBox="0 0 24 24" fill="none" xmlns="http://www.w3.org/2000/svg">
<path d="M2.09281 5.43341H2.12157C2.7159 4.79419 3.37734 4.21308 4.10588 3.69007C4.83442 3.16707 5.61089 2.73123 6.43529 2.38257C7.2597 2.01453 8.12244 1.73366 9.02353 1.53995C9.92462 1.34625 10.8545 1.24939 11.8131 1.24939C11.8322 1.24939 11.861 1.24939 11.8993 1.24939C11.9377 1.24939 11.9664 1.24939 11.9856 1.24939C12.024 1.24939 12.0527 1.24939 12.0719 1.24939C12.1102 1.24939 12.139 1.24939 12.1582 1.24939C13.1168 1.24939 14.0466 1.34625 14.9477 1.53995C15.868 1.73366 16.7403 2.00484 17.5647 2.35351C18.3891 2.70218 19.1752 3.13801 19.9229 3.66102C20.6514 4.16465 21.332 4.73608 21.9647 5.3753L22.885 4.56174C22.2139 3.86441 21.4758 3.23487 20.6706 2.67312C19.8845 2.11138 19.041 1.6368 18.1399 1.24939C17.2388 0.842615 16.2993 0.532688 15.3216 0.319613C14.3246 0.106538 13.3085 0 12.2732 0C12.2157 0 12.1678 0 12.1294 0C12.0911 0 12.0431 0 11.9856 0H12.0144C11.9569 0 11.9089 0 11.8706 0C11.8322 0 11.7843 0 11.7268 0C10.6915 0 9.67538 0.106538 8.67843 0.319613C7.70065 0.552058 6.76122 0.871671 5.86013 1.27845C4.97821 1.66586 4.13464 2.15012 3.32941 2.73123C2.54336 3.29298 1.81481 3.9322 1.14379 4.64891L2.09281 5.43341ZM11.9281 4.3293C10.1451 4.3293 8.64009 4.64891 7.41307 5.28814C6.18606 5.92736 5.17952 6.64407 4.39346 7.43826C3.62658 8.23245 3.07059 8.96852 2.72549 9.64649C2.36122 10.3245 2.1695 10.6925 2.15033 10.7506L1 10.2857C1 10.2663 1.20131 9.87893 1.60392 9.12349C1.98736 8.36804 2.61046 7.54479 3.4732 6.65375C4.35512 5.76271 5.48627 4.94915 6.86667 4.21308C8.24706 3.45763 9.93421 3.0799 11.9281 3.0799C13.8645 3.0799 15.5325 3.44794 16.932 4.18402C18.3124 4.93947 19.4532 5.76271 20.3542 6.65375C21.2553 7.54479 21.9168 8.36804 22.3386 9.12349C22.7603 9.85956 22.9808 10.2373 23 10.2567L21.8784 10.7797C21.8401 10.7215 21.6292 10.3438 21.2458 9.64649C20.8623 8.96852 20.268 8.24213 19.4627 7.46731C18.6575 6.67312 17.6414 5.94673 16.4144 5.28814C15.1682 4.64891 13.6728 4.3293 11.9281 4.3293ZM12.0144 6.21792C13.6632 6.21792 15.0819 6.56659 16.2706 7.26392C17.4593 7.96126 18.4562 8.77482 19.2614 9.7046C20.0858 10.6344 20.7377 11.5642 21.217 12.4939C21.6771 13.4431 22.003 14.1598 22.1948 14.6441L22.166 14.615C22.2427 14.8087 22.2906 15.0121 22.3098 15.2252C22.3481 15.4383 22.3673 15.6513 22.3673 15.8644C22.3673 16.2712 22.3098 16.6683 22.1948 17.0557C22.0797 17.4431 21.9168 17.7918 21.7059 18.1017C21.38 18.4891 20.9869 18.799 20.5268 19.0315C20.0858 19.2446 19.597 19.3511 19.0601 19.3511C18.8684 19.3511 18.6767 19.3414 18.485 19.322C18.3124 19.2833 18.1399 19.2349 17.9673 19.1768C17.1621 18.9637 16.5773 18.615 16.2131 18.1308C15.868 17.6465 15.542 17.1041 15.2353 16.5036C15.1394 16.2906 15.034 16.0775 14.919 15.8644C14.8039 15.6513 14.6793 15.4286 14.5451 15.1961C14.085 14.4213 13.6153 13.9564 13.1359 13.8015C12.6758 13.6465 12.3115 13.5787 12.0431 13.5981C11.7747 13.6174 11.5255 13.6949 11.2954 13.8305C11.0654 13.9661 10.8832 14.1404 10.749 14.3535C10.4423 14.8184 10.2889 15.4576 10.2889 16.2712C10.2889 17.0847 10.4423 18.0048 10.749 19.0315C10.749 19.0315 10.9503 19.5351 11.3529 20.5424C11.7556 21.5496 12.3115 22.4019 13.0209 23.0993L12.1869 24C11.3434 23.1864 10.7011 22.2276 10.2601 21.1235C9.81917 20.0194 9.58911 19.4383 9.56993 19.3801C9.20566 18.1598 9.03312 17.0557 9.05229 16.0678C9.09063 15.0799 9.31111 14.276 9.71373 13.6562C9.96296 13.2881 10.2793 12.9976 10.6627 12.7845C11.0462 12.5521 11.468 12.4165 11.9281 12.3777C12.3307 12.3196 12.8771 12.4068 13.5673 12.6392C14.2767 12.8523 14.9477 13.4818 15.5804 14.5278C15.7338 14.799 15.868 15.0508 15.983 15.2833C16.1172 15.5157 16.2322 15.7385 16.3281 15.9516C16.6157 16.5133 16.8745 16.9588 17.1046 17.2881C17.3538 17.5981 17.7468 17.8305 18.2837 17.9855C18.3987 18.0242 18.5233 18.063 18.6575 18.1017C18.7917 18.1211 18.9259 18.1308 19.0601 18.1308C19.3861 18.1308 19.6832 18.063 19.9516 17.9274C20.2392 17.7918 20.4885 17.6077 20.6993 17.3753V17.4044C20.8336 17.1719 20.939 16.9298 21.0157 16.678C21.0924 16.4068 21.1307 16.1356 21.1307 15.8644C21.1307 15.7094 21.1211 15.5738 21.102 15.4576C21.0828 15.322 21.0636 15.1961 21.0444 15.0799C20.8719 14.6344 20.5747 13.9855 20.1529 13.1332C19.7312 12.2809 19.156 11.4383 18.4275 10.6053C17.7181 9.75303 16.8266 9.01695 15.7529 8.39709C14.6985 7.77724 13.4523 7.46731 12.0144 7.46731C11.976 7.46731 11.9377 7.46731 11.8993 7.46731C11.861 7.46731 11.8227 7.46731 11.7843 7.46731C10.4423 7.46731 9.21525 7.8063 8.10327 8.48426C6.99129 9.14286 6.11895 10.0339 5.48627 11.1574L5.51503 11.0993C5.15076 11.6804 4.84401 12.2906 4.59477 12.9298C4.34553 13.569 4.15381 14.247 4.01961 14.9637L2.81176 14.7603C2.81176 14.7409 2.9268 14.2857 3.15686 13.3947C3.36776 12.5036 3.79913 11.5254 4.45098 10.46C5.122 9.39467 6.06144 8.42615 7.26928 7.55448C8.47712 6.66344 10.0588 6.21792 12.0144 6.21792ZM11.9856 10.4891C10.797 10.4891 9.87669 10.77 9.22484 11.3317C8.55381 11.8935 8.05534 12.523 7.72941 13.2203C7.42266 13.8983 7.24052 14.5375 7.18301 15.138C7.12549 15.7191 7.09673 16.0387 7.09673 16.0969V16.0678C7.07756 16.2228 7.06797 16.3874 7.06797 16.5617C7.06797 16.7361 7.06797 16.9104 7.06797 17.0847C7.06797 18.092 7.1159 19.0799 7.21176 20.0484C7.3268 21.0169 7.48976 21.9274 7.70065 22.7797L6.49281 23.0412L6.52157 23.2446C6.31068 22.2567 6.13813 21.2591 6.00392 20.2518C5.88889 19.2252 5.83137 18.1792 5.83137 17.1138C5.83137 16.9395 5.83137 16.7651 5.83137 16.5908C5.85054 16.3971 5.86013 16.2228 5.86013 16.0678C5.8793 15.4867 5.97516 14.799 6.14771 14.0048C6.33943 13.23 6.66536 12.4939 7.12549 11.7966C7.60479 11.0799 8.23747 10.4794 9.02353 9.99516C9.80959 9.49153 10.797 9.23971 11.9856 9.23971C13.3085 9.23971 14.4301 9.53995 15.3503 10.1404C16.2706 10.7603 17.0183 11.4383 17.5935 12.1743C18.1878 12.9104 18.6192 13.5981 18.8876 14.2373C19.156 14.8765 19.2998 15.2252 19.319 15.2833L18.1686 15.6901C18.1686 15.6707 18.0536 15.3898 17.8235 14.8475C17.5743 14.3051 17.2004 13.7143 16.702 13.0751C16.2227 12.4165 15.59 11.8257 14.8039 11.3027C14.037 10.7603 13.0976 10.4891 11.9856 10.4891ZM13.1935 15.9516H13.2222C13.2222 15.9709 13.2989 16.2324 13.4523 16.7361C13.6248 17.2397 13.9028 17.8402 14.2863 18.5375C14.6889 19.2349 15.2257 19.9322 15.8967 20.6295C16.5486 21.3462 17.373 21.9177 18.3699 22.3438L17.881 23.477C16.7499 22.9927 15.8105 22.3535 15.0627 21.5593C14.315 20.7651 13.7111 19.9903 13.251 19.2349C12.81 18.46 12.4937 17.7821 12.302 17.201C12.1294 16.6199 12.0336 16.3002 12.0144 16.2421L13.1935 15.9516Z" fill="black"/>
</svg>
