<svg width="24" height="24" viewBox="0 0 24 24" fill="none" xmlns="http://www.w3.org/2000/svg">
<path d="M11.9883 2.50781C13.3008 2.50781 14.5352 2.75781 15.6914 3.25781C16.8477 3.74219 17.8555 4.41406 18.7148 5.27344C19.5742 6.13281 20.2539 7.14062 20.7539 8.29688C21.2539 9.45312 21.5039 10.6875 21.5039 12C21.5039 13.3125 21.2539 14.5469 20.7539 15.7031C20.2539 16.8594 19.5742 17.8672 18.7148 18.7266C17.8555 19.5859 16.8477 20.2578 15.6914 20.7422C14.5352 21.2422 13.3008 21.4922 11.9883 21.4922C10.6758 21.4922 9.44922 21.2422 8.30859 20.7422C7.15234 20.2578 6.14453 19.5859 5.28516 18.7266C4.42578 17.8672 3.74609 16.8594 3.24609 15.7031C2.74609 14.5469 2.49609 13.3125 2.49609 12C2.49609 10.6875 2.74609 9.45312 3.24609 8.29688C3.74609 7.14062 4.42578 6.13281 5.28516 5.27344C6.14453 4.41406 7.15234 3.74219 8.30859 3.25781C9.44922 2.75781 10.6758 2.50781 11.9883 2.50781ZM13.1133 17.3438V15.2812H10.957V17.3438H13.1133ZM12.8789 14.2266L13.1836 7.28906H10.9102L11.2148 14.2266H12.8789Z" fill="black"/>
</svg>
