<svg width="24" height="24" viewBox="0 0 24 24" fill="none" xmlns="http://www.w3.org/2000/svg">
<path d="M12.0117 4.24219C13.0742 4.24219 14.0742 4.45312 15.0117 4.875C15.9336 5.28125 16.7461 5.83594 17.4492 6.53906C18.1523 7.24219 18.707 8.0625 19.1133 9C19.5352 9.9375 19.7461 10.9375 19.7461 12C19.7461 13.0781 19.543 14.0859 19.1367 15.0234C18.7305 15.9609 18.1758 16.7812 17.4727 17.4844C16.7695 18.1875 15.9492 18.7422 15.0117 19.1484C14.0742 19.5547 13.0742 19.7578 12.0117 19.7578C10.9336 19.7578 9.92578 19.5547 8.98828 19.1484C8.03516 18.7266 7.20703 18.1641 6.50391 17.4609C5.81641 16.7578 5.26953 15.9375 4.86328 15C4.45703 14.0625 4.25391 13.0625 4.25391 12C4.25391 10.9375 4.45703 9.9375 4.86328 9C5.26953 8.0625 5.81641 7.24219 6.50391 6.53906C7.20703 5.83594 8.03516 5.28125 8.98828 4.875C9.92578 4.45312 10.9336 4.24219 12.0117 4.24219ZM12.0117 18.7031C12.9336 18.7031 13.8008 18.5312 14.6133 18.1875C15.4258 17.8281 16.1367 17.3438 16.7461 16.7344C17.3555 16.125 17.8398 15.4141 18.1992 14.6016C18.5586 13.7891 18.7461 12.9219 18.7617 12C18.7617 11.0625 18.582 10.1875 18.2227 9.375C17.8633 8.54688 17.3789 7.82812 16.7695 7.21875C16.1602 6.60938 15.4414 6.13281 14.6133 5.78906C13.8008 5.42969 12.9336 5.25 12.0117 5.25C11.0742 5.25 10.1914 5.42969 9.36328 5.78906C8.55078 6.14844 7.83984 6.63281 7.23047 7.24219C6.62109 7.85156 6.13672 8.57031 5.77734 9.39844C5.43359 10.2109 5.26172 11.0781 5.26172 12C5.26172 12.9219 5.43359 13.7891 5.77734 14.6016C6.13672 15.4141 6.62109 16.125 7.23047 16.7344C7.83984 17.3438 8.55078 17.8281 9.36328 18.1875C10.1914 18.5312 11.0742 18.7031 12.0117 18.7031ZM13.793 11.9062C13.6055 11.7344 13.3945 11.6016 13.1602 11.5078C12.9258 11.3984 12.6758 11.3281 12.4102 11.2969L11.6602 11.2031C11.5352 11.1719 11.418 11.1328 11.3086 11.0859C11.1992 11.0234 11.1445 10.9297 11.1445 10.8047C11.1445 10.6484 11.1992 10.5312 11.3086 10.4531C11.418 10.3594 11.5508 10.3125 11.707 10.3125C11.7227 10.3125 11.7305 10.3125 11.7305 10.3125C11.7461 10.3125 11.7539 10.3125 11.7539 10.3125C11.7852 10.3125 11.8008 10.3125 11.8008 10.3125C11.8164 10.3125 11.832 10.3125 11.8477 10.3125C12.0195 10.3125 12.1914 10.3438 12.3633 10.4062C12.5352 10.4688 12.6992 10.5547 12.8555 10.6641C12.9023 10.7109 12.9648 10.75 13.043 10.7812C13.1367 10.7969 13.2227 10.8047 13.3008 10.8047C13.4102 10.8047 13.5039 10.7891 13.582 10.7578C13.6758 10.7266 13.7461 10.6719 13.793 10.5938C13.8555 10.5312 13.8945 10.4609 13.9102 10.3828C13.9414 10.3047 13.957 10.2266 13.957 10.1484C13.957 10.0547 13.9336 9.96875 13.8867 9.89062C13.8555 9.8125 13.8086 9.73438 13.7461 9.65625C13.5742 9.48438 13.3711 9.34375 13.1367 9.23438C12.9023 9.125 12.6602 9.04688 12.4102 9V8.50781C12.4102 8.38281 12.3633 8.28125 12.2695 8.20312C12.1914 8.10938 12.0898 8.0625 11.9648 8.0625C11.9648 8.0625 11.9492 8.0625 11.918 8.0625C11.9023 8.0625 11.8945 8.0625 11.8945 8.0625C11.8008 8.07812 11.707 8.125 11.6133 8.20312C11.5352 8.28125 11.4805 8.38281 11.4492 8.50781V8.95312C10.9805 8.98438 10.582 9.16406 10.2539 9.49219C9.92578 9.82031 9.76172 10.2266 9.76172 10.7109C9.76172 10.7109 9.76172 10.7188 9.76172 10.7344C9.76172 10.75 9.76172 10.7578 9.76172 10.7578C9.76172 10.7578 9.76172 10.7656 9.76172 10.7812C9.76172 10.7969 9.76172 10.8047 9.76172 10.8047C9.76172 11.0234 9.80078 11.2344 9.87891 11.4375C9.97266 11.625 10.0977 11.7812 10.2539 11.9062C10.5508 12.0781 10.8633 12.2266 11.1914 12.3516C11.5195 12.4609 11.8555 12.5312 12.1992 12.5625C12.5273 12.5781 12.7695 12.6641 12.9258 12.8203C13.082 12.9609 13.1602 13.1016 13.1602 13.2422C13.1602 13.2422 13.1602 13.2578 13.1602 13.2891C13.1602 13.3047 13.1602 13.3125 13.1602 13.3125C13.1602 13.4062 13.1367 13.5 13.0898 13.5938C13.043 13.6875 12.9805 13.7578 12.9023 13.8047C12.7773 13.8828 12.6367 13.9453 12.4805 13.9922C12.3398 14.0391 12.1992 14.0625 12.0586 14.0625C12.0273 14.0625 12.0039 14.0625 11.9883 14.0625C11.9883 14.0625 11.9805 14.0625 11.9648 14.0625C11.9336 14.0625 11.9023 14.0625 11.8711 14.0625C11.8555 14.0625 11.832 14.0625 11.8008 14.0625C11.582 14.0625 11.3633 14.0156 11.1445 13.9219C10.9414 13.8281 10.7617 13.7031 10.6055 13.5469C10.5586 13.4688 10.4883 13.4219 10.3945 13.4062C10.3164 13.375 10.2383 13.3594 10.1602 13.3594C10.082 13.3594 9.99609 13.3828 9.90234 13.4297C9.82422 13.4609 9.76172 13.5 9.71484 13.5469C9.65234 13.625 9.59766 13.7031 9.55078 13.7812C9.51953 13.8594 9.50391 13.9531 9.50391 14.0625C9.50391 14.1562 9.51172 14.2422 9.52734 14.3203C9.55859 14.3984 9.59766 14.4609 9.64453 14.5078C9.89453 14.7578 10.1758 14.9609 10.4883 15.1172C10.8164 15.2578 11.1523 15.3516 11.4961 15.3984V15.75C11.5273 15.8594 11.582 15.9531 11.6602 16.0312C11.7383 16.1094 11.8398 16.1484 11.9648 16.1484C11.9648 16.1484 11.9727 16.1484 11.9883 16.1484C12.0039 16.1484 12.0117 16.1484 12.0117 16.1484C12.0273 16.1484 12.0352 16.1484 12.0352 16.1484C12.0508 16.1484 12.0586 16.1484 12.0586 16.1484C12.1523 16.1484 12.2383 16.1172 12.3164 16.0547C12.4102 15.9766 12.457 15.875 12.457 15.75V15.3984C12.7539 15.3828 13.0273 15.3203 13.2773 15.2109C13.5273 15.0859 13.7539 14.9297 13.957 14.7422C14.1289 14.5703 14.2617 14.3672 14.3555 14.1328C14.4492 13.8828 14.4961 13.625 14.4961 13.3594C14.4961 13.3594 14.4961 13.3516 14.4961 13.3359C14.4961 13.3203 14.4961 13.3125 14.4961 13.3125C14.4961 13.0312 14.4336 12.7656 14.3086 12.5156C14.1992 12.25 14.0273 12.0469 13.793 11.9062Z" fill="black"/>
</svg>
