<svg width="200" height="90" viewBox="0 0 200 90" fill="none" xmlns="http://www.w3.org/2000/svg">
<path d="M142 10.46C141.997 9.73502 141.707 9.04066 141.194 8.52897C140.68 8.01728 139.985 7.72998 139.26 7.72998H47.8496C47.1299 7.73786 46.4421 8.02864 45.935 8.53948C45.4279 9.05032 45.1422 9.74019 45.1396 10.46V70.85H142V10.46Z" fill="white"/>
<path d="M149.52 73.73H106.44V74.73C106.435 74.9564 106.342 75.1722 106.182 75.3324C106.022 75.4926 105.806 75.5849 105.58 75.5899H81.4798C81.2535 75.5873 81.0373 75.4956 80.8781 75.3346C80.719 75.1736 80.6298 74.9563 80.6298 74.73V73.73H37.6298C37.3576 73.7273 37.0876 73.7786 36.8353 73.881C36.5831 73.9833 36.3536 74.1346 36.1602 74.3262C35.9668 74.5177 35.8133 74.7457 35.7085 74.997C35.6037 75.2482 35.5498 75.5177 35.5498 75.79V80.33C35.5524 80.8799 35.7728 81.4064 36.1625 81.7943C36.5523 82.1822 37.0799 82.4 37.6298 82.4H149.52C150.05 82.4 150.559 82.1892 150.934 81.8142C151.309 81.4391 151.52 80.9304 151.52 80.4V75.68C151.507 75.1582 151.29 74.6623 150.917 74.2979C150.543 73.9336 150.042 73.7298 149.52 73.73Z" fill="white"/>
<path d="M140.46 69.35H46.6099V10.46C46.6099 10.1338 46.7394 9.82095 46.9701 9.59028C47.2008 9.35961 47.5136 9.23002 47.8399 9.23002H139.22C139.381 9.2287 139.542 9.25921 139.691 9.31981C139.841 9.38041 139.977 9.46991 140.093 9.5832C140.208 9.69649 140.299 9.83135 140.362 9.98008C140.425 10.1288 140.459 10.2885 140.46 10.45V69.35Z" stroke="#1A5336" stroke-width="3" stroke-miterlimit="10" stroke-linecap="square"/>
<path d="M149.52 73.73H106.44V74.73C106.435 74.9564 106.342 75.1722 106.182 75.3324C106.022 75.4926 105.806 75.5849 105.58 75.5899H81.4798C81.2535 75.5873 81.0373 75.4956 80.8781 75.3346C80.719 75.1736 80.6298 74.9563 80.6298 74.73V73.73H37.6298C37.3576 73.7273 37.0876 73.7786 36.8353 73.881C36.5831 73.9833 36.3536 74.1346 36.1602 74.3262C35.9668 74.5177 35.8133 74.7457 35.7085 74.997C35.6037 75.2482 35.5498 75.5177 35.5498 75.79V80.33C35.5524 80.8799 35.7728 81.4064 36.1625 81.7943C36.5523 82.1822 37.0799 82.4 37.6298 82.4H149.52C150.05 82.4 150.559 82.1892 150.934 81.8142C151.309 81.4391 151.52 80.9304 151.52 80.4V75.68C151.507 75.1582 151.29 74.6623 150.917 74.2979C150.543 73.9336 150.042 73.7298 149.52 73.73Z" fill="#1A5336"/>
<path d="M164.87 59.42L170.9 65.45L172.54 63.81L166.51 57.78L168.2 56.09L159.7 52.6L163.18 61.11L164.87 59.42Z" fill="#00B624"/>
<path d="M170.06 56.18L156.16 50.48L161.86 64.39L164.08 62.17L170.11 68.19L173.87 64.43L167.84 58.4L170.06 56.18Z" stroke="#1A5336" stroke-width="3" stroke-miterlimit="10" stroke-linecap="square"/>
<path d="M100.11 21.4399C100.11 21.4399 93.7397 21.2999 93.7397 24.1699V57.9999C93.7398 58.0385 93.7501 58.0764 93.7694 58.1098C93.7888 58.1431 93.8165 58.1708 93.85 58.1901C93.8834 58.2093 93.9213 58.2194 93.9599 58.2194C93.9985 58.2194 94.0363 58.2092 94.0697 58.1899C94.7497 57.7599 96.5597 56.8999 100.07 56.8999H116.89V21.4499L100.11 21.4399Z" fill="white"/>
<path d="M87.2497 21.4399H70.4297V56.8799H87.2497C90.8097 56.8799 92.6097 57.7399 93.2497 58.1699C93.2823 58.1901 93.3198 58.2009 93.3582 58.2012C93.3965 58.2016 93.4342 58.1914 93.4672 58.1718C93.5002 58.1522 93.5272 58.124 93.5452 58.0902C93.5633 58.0564 93.5718 58.0182 93.5697 57.9799V24.1699C93.6297 21.2999 87.2497 21.4399 87.2497 21.4399Z" fill="white"/>
<path d="M100.11 56.89H116.93V21.45H100.11C100.11 21.45 93.7397 21.31 93.7397 24.18V58C93.7398 58.0385 93.7501 58.0764 93.7694 58.1098C93.7888 58.1431 93.8165 58.1708 93.85 58.1901C93.8834 58.2093 93.9213 58.2195 93.9599 58.2194C93.9985 58.2194 94.0363 58.2092 94.0697 58.19C94.7397 57.75 96.5497 56.89 100.11 56.89Z" stroke="#1A5336" stroke-width="3" stroke-miterlimit="10" stroke-linecap="square"/>
<path d="M76.5698 39.8199L87.4898 39.8299" stroke="#1A5336" stroke-width="3" stroke-miterlimit="10" stroke-linecap="square"/>
<path d="M76.5698 33.41L87.4898 33.42" stroke="#1A5336" stroke-width="3" stroke-miterlimit="10" stroke-linecap="square"/>
<path d="M76.5698 46.23L87.4898 46.24" stroke="#1A5336" stroke-width="3" stroke-miterlimit="10" stroke-linecap="square"/>
<path d="M99.8496 39.8199L110.77 39.8299" stroke="#1A5336" stroke-width="3" stroke-miterlimit="10" stroke-linecap="square"/>
<path d="M99.8496 33.41L110.77 33.42" stroke="#1A5336" stroke-width="3" stroke-miterlimit="10" stroke-linecap="square"/>
<path d="M99.8398 46.23L110.76 46.24" stroke="#1A5336" stroke-width="3" stroke-miterlimit="10" stroke-linecap="square"/>
<path d="M87.2499 56.8899H70.4199V21.4299H87.2499C87.2499 21.4299 93.6299 21.2899 93.6299 24.1599V57.9999C93.632 58.0382 93.6235 58.0764 93.6055 58.1102C93.5874 58.144 93.5604 58.1722 93.5274 58.1918C93.4945 58.2114 93.4568 58.2216 93.4184 58.2212C93.3801 58.2209 93.3426 58.2101 93.3099 58.1899C92.6099 57.7499 90.8099 56.8899 87.2499 56.8899Z" stroke="#1A5336" stroke-width="3" stroke-miterlimit="10" stroke-linecap="square"/>
<path d="M89.0498 58.49C90.1128 58.6704 91.0846 59.2021 91.8098 60H95.4598C96.1821 59.1947 97.1542 58.6558 98.2198 58.47L89.0498 58.49Z" fill="#1A5336"/>
</svg>
