<svg width="24" height="24" viewBox="0 0 24 24" fill="none" xmlns="http://www.w3.org/2000/svg">
<path d="M7.67578 7.33594C7.39453 7.07031 7.17578 6.76562 7.01953 6.42188C6.86328 6.0625 6.78516 5.67188 6.78516 5.25C6.78516 5.23438 6.78516 5.22656 6.78516 5.22656C6.78516 4.61719 6.96484 4.07812 7.32422 3.60938C7.69922 3.14062 8.16016 2.82812 8.70703 2.67188H8.73047C8.85547 2.64062 8.98047 2.61719 9.10547 2.60156C9.24609 2.58594 9.37891 2.57031 9.50391 2.55469H9.52734C9.88672 2.57031 10.2227 2.64844 10.5352 2.78906C10.8477 2.92969 11.1211 3.11719 11.3555 3.35156L12.4102 4.5C12.4102 4.5 12.5664 4.33594 12.8789 4.00781C13.207 3.67969 13.3945 3.49219 13.4414 3.44531C13.6914 3.19531 13.9805 3 14.3086 2.85938C14.6367 2.70312 14.9961 2.625 15.3867 2.625C15.918 2.625 16.3945 2.77344 16.8164 3.07031C17.2539 3.35156 17.582 3.72656 17.8008 4.19531C17.8789 4.36719 17.9336 4.54688 17.9648 4.73438C18.0117 4.92188 18.0352 5.10938 18.0352 5.29688C18.0352 5.625 17.9805 5.9375 17.8711 6.23438C17.7617 6.53125 17.6133 6.79688 17.4258 7.03125V7.00781C17.3789 7.07031 17.332 7.13281 17.2852 7.19531C17.2383 7.24219 17.1914 7.28906 17.1445 7.33594L12.4102 12.0703L7.67578 7.33594ZM21.8086 17.0156L19.5586 21.1641C19.5117 21.2422 19.4492 21.3125 19.3711 21.375C19.293 21.4219 19.207 21.4453 19.1133 21.4453C19.0664 21.4453 19.0195 21.4375 18.9727 21.4219C18.9258 21.4062 18.8789 21.3828 18.832 21.3516L16.6992 19.8984C16.5898 19.8203 16.4648 19.7578 16.3242 19.7109C16.1992 19.6641 16.0664 19.6406 15.9258 19.6406C15.8477 19.6406 15.7773 19.6484 15.7148 19.6641C15.6523 19.6797 15.5898 19.6953 15.5273 19.7109H15.5508L11.2617 20.9062C11.1836 20.9375 11.0977 20.9609 11.0039 20.9766C10.9258 20.9766 10.8398 20.9766 10.7461 20.9766C10.5742 20.9766 10.4102 20.9609 10.2539 20.9297C10.1133 20.8828 9.97266 20.8281 9.83203 20.7656L2.63672 16.9688C2.55859 16.9375 2.48828 16.8906 2.42578 16.8281C2.36328 16.75 2.30859 16.6719 2.26172 16.5938C2.23047 16.5312 2.19922 16.4609 2.16797 16.3828C2.15234 16.3047 2.14453 16.2188 2.14453 16.125C2.14453 15.9375 2.18359 15.7656 2.26172 15.6094C2.33984 15.4531 2.44922 15.3203 2.58984 15.2109L2.82422 15.0234L2.84766 15C2.98828 14.9062 3.13672 14.8359 3.29297 14.7891C3.46484 14.7266 3.64453 14.6953 3.83203 14.6953C3.84766 14.6953 3.85547 14.6953 3.85547 14.6953C3.94922 14.6953 4.04297 14.7031 4.13672 14.7188C4.24609 14.7344 4.34766 14.75 4.44141 14.7656H4.41797H4.44141L9.33984 16.0547C9.33984 16.0234 9.33203 16 9.31641 15.9844C9.31641 15.9688 9.31641 15.9531 9.31641 15.9375C9.31641 15.7812 9.33984 15.6406 9.38672 15.5156C9.44922 15.375 9.52734 15.25 9.62109 15.1406C9.71484 15.0312 9.83203 14.9375 9.97266 14.8594C10.1133 14.7656 10.2617 14.7031 10.418 14.6719V14.6484L13.0664 13.8516C13.207 13.8047 13.3555 13.7734 13.5117 13.7578C13.668 13.7266 13.832 13.7109 14.0039 13.7109C14.2383 13.7109 14.4648 13.7344 14.6836 13.7812C14.9023 13.8281 15.1211 13.8906 15.3398 13.9688H15.3164L21.5273 16.3125C21.6211 16.3438 21.6992 16.4062 21.7617 16.5C21.8242 16.5781 21.8555 16.6719 21.8555 16.7812C21.8555 16.8281 21.8477 16.875 21.832 16.9219C21.832 16.9531 21.8242 16.9844 21.8086 17.0156ZM20.6367 17.0391L14.9648 14.9062C14.8086 14.8438 14.6523 14.7969 14.4961 14.7656C14.3398 14.7344 14.1758 14.7188 14.0039 14.7188C13.8789 14.7188 13.7539 14.7266 13.6289 14.7422C13.5195 14.7578 13.4102 14.7812 13.3008 14.8125H13.3242L10.6992 15.6094C10.6367 15.625 10.5742 15.6484 10.5117 15.6797C10.4648 15.7109 10.418 15.75 10.3711 15.7969C10.3555 15.8125 10.3398 15.8359 10.3242 15.8672C10.3242 15.8828 10.3242 15.9062 10.3242 15.9375C10.3242 15.9844 10.332 16.0312 10.3477 16.0781C10.3789 16.125 10.4102 16.1641 10.4414 16.1953C10.5039 16.2578 10.5742 16.3125 10.6523 16.3594C10.7305 16.3906 10.8086 16.4219 10.8867 16.4531H10.9102C11.0039 16.4844 11.1055 16.5078 11.2148 16.5234C11.3242 16.5391 11.4414 16.5469 11.5664 16.5469C11.6289 16.5469 11.6836 16.5469 11.7305 16.5469C11.793 16.5469 11.8477 16.5391 11.8945 16.5234H11.8711L13.3711 16.2891C13.3867 16.2891 13.4023 16.2891 13.418 16.2891C13.4336 16.2891 13.4414 16.2891 13.4414 16.2891C13.582 16.2891 13.6992 16.3359 13.793 16.4297C13.9023 16.5234 13.957 16.6406 13.957 16.7812C13.957 16.9062 13.9102 17.0156 13.8164 17.1094C13.7383 17.2031 13.6445 17.2578 13.5352 17.2734L12.0117 17.5078C11.9492 17.5234 11.8789 17.5391 11.8008 17.5547C11.7227 17.5547 11.6445 17.5547 11.5664 17.5547C11.4414 17.5547 11.3164 17.5469 11.1914 17.5312C11.082 17.5156 10.9727 17.4922 10.8633 17.4609H10.8867C10.8867 17.4609 10.8789 17.4609 10.8633 17.4609C10.8633 17.4609 10.8555 17.4609 10.8398 17.4609C10.8398 17.4609 10.832 17.4609 10.8164 17.4609L4.18359 15.75C4.13672 15.7344 4.08203 15.7266 4.01953 15.7266C3.97266 15.7109 3.91797 15.7031 3.85547 15.7031C3.85547 15.7031 3.84766 15.7031 3.83203 15.7031C3.75391 15.7031 3.67578 15.7188 3.59766 15.75C3.53516 15.7656 3.47266 15.7891 3.41016 15.8203L3.22266 15.9844L3.19922 16.0078L3.15234 16.125L10.3008 19.875C10.3633 19.9062 10.4336 19.9375 10.5117 19.9688C10.5898 19.9844 10.668 19.9922 10.7461 19.9922C10.793 19.9922 10.832 19.9922 10.8633 19.9922C10.9102 19.9766 10.957 19.9609 11.0039 19.9453L15.2695 18.75C15.3633 18.7188 15.4648 18.6953 15.5742 18.6797C15.6836 18.6641 15.8008 18.6562 15.9258 18.6562C16.1758 18.6562 16.4102 18.6953 16.6289 18.7734C16.8633 18.8359 17.082 18.9375 17.2852 19.0781L17.2617 19.0547L18.9492 20.2031L20.6367 17.0391Z" fill="black"/>
</svg>
