<svg width="200" height="90" viewBox="0 0 200 90" fill="none" xmlns="http://www.w3.org/2000/svg">
<path d="M140.13 71.84H43.27V11.47C43.27 10.745 43.5573 10.0496 44.069 9.53604C44.5807 9.02247 45.2751 8.73263 46 8.72998H137.38C138.107 8.72998 138.804 9.01866 139.317 9.53251C139.831 10.0464 140.12 10.7433 140.12 11.47L140.13 71.84Z" fill="white"/>
<path d="M138.63 70.34H44.77V11.47C44.77 11.1428 44.8993 10.8289 45.1297 10.5967C45.3601 10.3644 45.6729 10.2326 46 10.23H137.38C137.708 10.2326 138.022 10.3641 138.254 10.5961C138.486 10.828 138.617 11.1419 138.62 11.47L138.63 70.34Z" stroke="#1A5336" stroke-width="3" stroke-miterlimit="10" stroke-linecap="square"/>
<path d="M147.68 74.72H104.61V75.72C104.605 75.9465 104.513 76.1623 104.353 76.3224C104.192 76.4826 103.977 76.5749 103.75 76.58H79.6502C79.4239 76.5773 79.2077 76.4856 79.0486 76.3246C78.8894 76.1636 78.8002 75.9463 78.8002 75.72V74.72H35.8002C35.2486 74.72 34.7195 74.9391 34.3294 75.3292C33.9394 75.7193 33.7202 76.2483 33.7202 76.8V81.33C33.7202 81.8816 33.9394 82.4107 34.3294 82.8008C34.7195 83.1908 35.2486 83.41 35.8002 83.41H147.64C148.171 83.41 148.679 83.1993 149.054 82.8242C149.43 82.4491 149.64 81.9404 149.64 81.41V76.68C149.63 76.1634 149.42 75.6707 149.055 75.3054C148.689 74.94 148.197 74.7302 147.68 74.72Z" fill="#1A5336"/>
<path d="M113.46 39.91C113.46 43.8794 112.283 47.7598 110.078 51.0603C107.873 54.3608 104.738 56.9332 101.071 58.4522C97.4035 59.9713 93.3681 60.3687 89.4749 59.5943C85.5817 58.8199 82.0055 56.9084 79.1987 54.1016C76.3918 51.2948 74.4804 47.7186 73.706 43.8254C72.9316 39.9322 73.329 35.8968 74.8481 32.2295C76.3671 28.5622 78.9395 25.4277 82.24 23.2224C85.5405 21.0171 89.4208 19.84 93.3903 19.84C98.7116 19.8453 103.813 21.9615 107.576 25.7242C111.339 29.4869 113.455 34.5887 113.46 39.91Z" stroke="#1E5748" stroke-width="3" stroke-miterlimit="10"/>
<path d="M109.29 58.8L107.54 60.55L102.54 48.34L114.73 53.34L112.98 55.09L116.86 58.98L113.17 62.67L109.29 58.8Z" fill="#1A5336"/>
<path d="M104.18 50L113.18 53.6699L111.75 55.0999L115.59 59L113.17 61.4199L109.29 57.54L107.86 59L104.18 50ZM100.89 46.7099L102.52 50.7099L106.19 59.7099L107.19 62.22L109.1 60.2999L109.26 60.15L111.87 62.75L113.14 64.0199L114.41 62.75L116.83 60.33L118.14 59L116.86 57.7299L114.25 55.11L114.41 54.9599L116.32 53L113.82 52L104.87 48.33L100.87 46.7L100.89 46.7099Z" fill="white"/>
<path d="M84.1303 34.06H102.61C102.679 34.06 102.745 34.0326 102.794 33.9838C102.843 33.9351 102.87 33.8689 102.87 33.8C102.876 33.7476 102.865 33.6948 102.838 33.6496C102.81 33.6044 102.769 33.5694 102.72 33.55L93.4803 29.21H93.2603L84.0003 33.55C83.9377 33.5803 83.8893 33.6337 83.865 33.6989C83.8408 33.7641 83.8427 33.8361 83.8703 33.9C83.8899 33.9516 83.926 33.9953 83.973 34.0243C84.0201 34.0532 84.0754 34.0658 84.1303 34.06Z" fill="#1A5336"/>
<path d="M102.86 47.4199H83.8701V48.8299H102.86V47.4199Z" fill="#1A5336"/>
<path d="M101.44 45.4399H85.3003V46.8499H101.44V45.4399Z" fill="#1A5336"/>
<path d="M101.44 34.74H85.3003V36.15H101.44V34.74Z" fill="#1A5336"/>
<path d="M92.3803 36.76H90.1104V44.77H92.3803V36.76Z" fill="#1A5336"/>
<path d="M96.6303 36.76H94.3604V44.77H96.6303V36.76Z" fill="#1A5336"/>
<path d="M100.87 36.76H98.6001V44.77H100.87V36.76Z" fill="#1A5336"/>
<path d="M88.1401 36.76H85.8701V44.77H88.1401V36.76Z" fill="#1A5336"/>
<path d="M161.73 22.2799C162.526 22.2799 163.289 22.596 163.852 23.1586C164.414 23.7212 164.73 24.4843 164.73 25.2799V80.3799C164.73 81.1756 164.414 81.9386 163.852 82.5013C163.289 83.0639 162.526 83.3799 161.73 83.3799H135.15C134.355 83.3799 133.592 83.0639 133.029 82.5013C132.466 81.9386 132.15 81.1756 132.15 80.3799V25.2999C132.15 24.5043 132.466 23.7412 133.029 23.1786C133.592 22.616 134.355 22.2999 135.15 22.2999H161.73M161.73 20.6999H135.15C133.925 20.6999 132.75 21.1867 131.883 22.0531C131.017 22.9195 130.53 24.0946 130.53 25.3199V80.3799C130.53 80.9866 130.65 81.5874 130.882 82.1479C131.114 82.7085 131.454 83.2178 131.883 83.6468C132.312 84.0758 132.822 84.4161 133.382 84.6483C133.943 84.8804 134.544 84.9999 135.15 84.9999H161.73C162.337 84.9999 162.938 84.8804 163.498 84.6483C164.059 84.4161 164.568 84.0758 164.997 83.6468C165.426 83.2178 165.766 82.7085 165.999 82.1479C166.231 81.5874 166.35 80.9866 166.35 80.3799V25.2999C166.35 24.0746 165.864 22.8995 164.997 22.0331C164.131 21.1667 162.956 20.6799 161.73 20.6799V20.6999Z" fill="white"/>
<path d="M163.17 24.61H134.62V81.86H163.17V24.61Z" fill="white"/>
<path d="M162.77 81.9H136.38C136.279 81.8976 136.183 81.8571 136.111 81.7866C136.038 81.7162 135.995 81.6209 135.99 81.52V75.66H163.16V81.52C163.16 81.6208 163.12 81.7175 163.049 81.7887C162.978 81.86 162.881 81.9 162.78 81.9H162.77Z" fill="#00B624"/>
<path d="M163.4 25.99H136.23V28.99H163.4V25.99Z" fill="#00B624"/>
<path d="M133.78 28.99H163.4" stroke="#1A5336" stroke-width="3" stroke-miterlimit="10"/>
<path d="M133.78 74.1799H163.4" stroke="#1A5336" stroke-width="3" stroke-miterlimit="10"/>
<path d="M161.88 23.78H135.3C134.461 23.78 133.78 24.4606 133.78 25.3V80.38C133.78 81.2195 134.461 81.9 135.3 81.9H161.88C162.72 81.9 163.4 81.2195 163.4 80.38V25.3C163.4 24.4606 162.72 23.78 161.88 23.78Z" stroke="#1A5336" stroke-width="3" stroke-miterlimit="10"/>
<path d="M164.8 25.2299V80.3199C164.8 81.1156 164.484 81.8786 163.922 82.4412C163.359 83.0039 162.596 83.3199 161.8 83.3199H135.19C134.395 83.3199 133.632 83.0039 133.069 82.4412C132.506 81.8786 132.19 81.1156 132.19 80.3199V25.2299C132.19 24.4343 132.506 23.6712 133.069 23.1086C133.632 22.546 134.395 22.2299 135.19 22.2299H161.78C162.176 22.2273 162.568 22.3029 162.935 22.4525C163.301 22.6021 163.634 22.8227 163.915 23.1015C164.195 23.3803 164.418 23.7119 164.57 24.0772C164.722 24.4425 164.8 24.8343 164.8 25.2299Z" fill="white"/>
<path d="M162.64 26.0699H136.14V28.3199H162.64V26.0699Z" fill="#00B624"/>
<path d="M162.34 81.7999H136.55C136.448 81.8 136.351 81.7603 136.278 81.6893C136.205 81.6183 136.163 81.5216 136.16 81.4199V75.5599H162.72V81.4199C162.72 81.4698 162.71 81.5193 162.691 81.5654C162.672 81.6115 162.644 81.6534 162.609 81.6886C162.574 81.7239 162.532 81.7519 162.486 81.771C162.439 81.7901 162.39 81.7999 162.34 81.7999Z" fill="#00B624"/>
<path d="M161.78 23.72H135.2C134.361 23.72 133.68 24.4005 133.68 25.24V80.32C133.68 81.1594 134.361 81.84 135.2 81.84H161.78C162.62 81.84 163.3 81.1594 163.3 80.32V25.24C163.3 24.4005 162.62 23.72 161.78 23.72Z" stroke="#1A5336" stroke-width="3" stroke-miterlimit="10"/>
<path d="M133.68 28.9199H163.3" stroke="#1A5336" stroke-width="3" stroke-miterlimit="10"/>
<path d="M133.68 73.12H163.3" stroke="#1A5336" stroke-width="3" stroke-miterlimit="10"/>
<path d="M152.19 76.26H144.8V78.45H152.19V76.26Z" fill="#1A5336"/>
<path d="M139.65 43V58.82H157.34V43H139.65ZM151.3 55.38H147.16V47.94H149.23V54.05H151.23C152.6 54.05 153.18 53.05 153.18 50.65C153.18 48.25 152.52 47.46 151.18 47.46H146.62V55.35H144.57V47.45H141.57V46.13H151.8C154.27 46.13 155.44 47.41 155.44 50.61C155.44 54.84 153.69 55.35 151.32 55.35L151.3 55.38Z" fill="#00B624"/>
</svg>
