<svg width="24" height="24" viewBox="0 0 24 24" fill="none" xmlns="http://www.w3.org/2000/svg">
<path d="M22.6289 14.0859C22.6289 14.3047 22.5742 14.5 22.4648 14.6719C22.3711 14.8438 22.2383 14.9766 22.0664 15.0703L22.6289 17.5078H20.332L20.8945 15.0703C20.7227 14.9766 20.582 14.8438 20.4727 14.6719C20.3789 14.5 20.332 14.3047 20.332 14.0859C20.332 13.8672 20.3867 13.6719 20.4961 13.5C20.6211 13.3125 20.7852 13.1719 20.9883 13.0781V10.2188L18.832 11.1797V16.7344C18.832 16.7344 18.7773 16.8125 18.668 16.9688C18.5586 17.1094 18.4805 17.2188 18.4336 17.2969H18.4102C18.2695 17.4688 18.1055 17.6406 17.918 17.8125C17.7305 17.9688 17.5352 18.1094 17.332 18.2344C16.8164 18.5781 16.1289 18.8906 15.2695 19.1719C14.4102 19.4375 13.332 19.5703 12.0352 19.5703C10.7383 19.5703 9.65234 19.4375 8.77734 19.1719C7.91797 18.8906 7.22266 18.5781 6.69141 18.2344H6.66797C6.37109 18.0312 6.09766 17.8047 5.84766 17.5547C5.59766 17.3047 5.37109 17.0156 5.16797 16.6875V11.1797L1.30078 9.49219L12.0117 4.42969L22.6992 9.46875L21.9727 9.79688V13.0781H21.9961C22.1836 13.1719 22.332 13.3125 22.4414 13.5C22.5664 13.6719 22.6289 13.8672 22.6289 14.0859ZM12.0117 5.53125L3.71484 9.44531L11.9883 13.0781L20.2852 9.44531L12.0117 5.53125ZM17.8242 16.4297V11.6016L11.9883 14.1562L6.17578 11.625V16.4297C6.19141 16.4609 6.21484 16.5 6.24609 16.5469C6.27734 16.5781 6.30859 16.6094 6.33984 16.6406C6.46484 16.7812 6.59766 16.9219 6.73828 17.0625C6.89453 17.1875 7.05859 17.3047 7.23047 17.4141C7.68359 17.6953 8.29297 17.9609 9.05859 18.2109C9.82422 18.4609 10.8164 18.5859 12.0352 18.5859C13.1602 18.5859 14.0898 18.4766 14.8242 18.2578C15.5742 18.0391 16.168 17.7969 16.6055 17.5312L16.6289 17.5078C16.8633 17.3828 17.0742 17.2266 17.2617 17.0391C17.4648 16.8516 17.6523 16.6484 17.8242 16.4297Z" fill="black"/>
</svg>
