<svg width="24" height="24" viewBox="0 0 24 24" fill="none" xmlns="http://www.w3.org/2000/svg">
<path d="M4.82812 10.4062H11.1328V17.7891H4.82812V10.4062ZM7.96875 11.8125C7.54688 11.8125 7.25 11.9453 7.07812 12.2109C6.92188 12.4609 6.84375 12.7422 6.84375 13.0547C6.84375 13.3672 6.92969 13.6641 7.10156 13.9453C7.27344 14.2109 7.5625 14.3438 7.96875 14.3438C8.28125 14.3281 8.54688 14.2109 8.76562 13.9922C8.98438 13.7734 9.09375 13.5078 9.09375 13.1953C9.09375 13.1641 9.09375 13.1406 9.09375 13.125C9.09375 13.0938 9.09375 13.0703 9.09375 13.0547C9.09375 12.7422 9.01562 12.4609 8.85938 12.2109C8.70312 11.9453 8.40625 11.8125 7.96875 11.8125ZM10.2891 16.5234V15.7266C10.2891 15.6172 10.2578 15.5234 10.1953 15.4453C10.1328 15.3672 10.0547 15.3047 9.96094 15.2578L8.76562 14.7891C8.6875 14.7578 8.60938 14.7344 8.53125 14.7188C8.45312 14.7031 8.36719 14.6953 8.27344 14.6953H7.66406C7.58594 14.6953 7.50781 14.7031 7.42969 14.7188C7.35156 14.7344 7.27344 14.7578 7.19531 14.7891L5.97656 15.2578C5.88281 15.3047 5.80469 15.3672 5.74219 15.4453C5.69531 15.5234 5.66406 15.6172 5.64844 15.7266V16.5234H10.2891ZM18.9375 12.1172V11.1094H12.5625V12.1172H18.9375ZM18.9375 14.6016V13.6172H12.5625V14.6016H18.9375ZM18.9375 17.1094V16.1016H12.5625V17.1094H18.9375ZM20.4609 7.35938C20.7422 7.35938 20.9766 7.46094 21.1641 7.66406C21.3672 7.85156 21.4688 8.08594 21.4688 8.36719V19.7578C21.4688 20.0391 21.3672 20.2812 21.1641 20.4844C20.9766 20.6719 20.7422 20.7656 20.4609 20.7656H3.53906C3.25781 20.7656 3.01562 20.6719 2.8125 20.4844C2.625 20.2812 2.53125 20.0391 2.53125 19.7578V8.36719C2.53125 8.08594 2.625 7.85156 2.8125 7.66406C3.01562 7.46094 3.25781 7.35938 3.53906 7.35938H10.1953V3.23438H13.7344V7.35938H20.4609ZM11.9531 4.26562C11.7344 4.26562 11.5469 4.34375 11.3906 4.5C11.2344 4.65625 11.1562 4.84375 11.1562 5.0625C11.1562 5.28125 11.2344 5.46875 11.3906 5.625C11.5469 5.78125 11.7344 5.85938 11.9531 5.85938C12.1875 5.85938 12.3828 5.78125 12.5391 5.625C12.6953 5.46875 12.7734 5.28125 12.7734 5.0625C12.7734 4.84375 12.6953 4.65625 12.5391 4.5C12.3828 4.34375 12.1875 4.26562 11.9531 4.26562ZM20.4609 19.7578V8.36719H3.53906V19.7578H20.4609Z" fill="black"/>
</svg>
