<svg width="320" height="180" viewBox="0 0 320 180" fill="none" xmlns="http://www.w3.org/2000/svg">
<path d="M253.4 26.7V153.1H184C169 153.3 163.8 155.9 161.6 157.1C161 157.4 160.3 157.6 159.6 157.6H159.1C158.4 157.6 157.7 157.5 157.1 157.1C148.3 151.6 65.3999 153.1 65.3999 153.1V26.7H81.4999V21.2H139.2C140.7 21.2 154 21 159.9 26.4C165.8 21.1 179.2 21.2 180.7 21.2H238.3V26.7H253.4Z" fill="white"/>
<path d="M81.1998 28.4H70.2998V149.6C70.2998 149.6 122.6 148.9 140 149.4C157.4 149.9 153.2 151.5 159.5 153.8L159.9 143L81.1998 43.2001V28.3V28.4Z" fill="#62AD41"/>
<path d="M248.5 28.4H238V38.3C238.1 38.3 160.2 146.5 160.2 146.5L159.9 153.5C165.3 152.3 168.4 150.7 176.7 149.8C185 148.9 248.6 149.6 248.6 149.6V28.3H248.5V28.4Z" fill="#62AD41"/>
<path d="M252.3 152.9V27H184.4C184.4 27 158.6 26.5 158.6 36.7V156.9C158.6 157.4 159.1 157.7 159.6 157.7C160.1 157.7 159.8 157.7 160 157.6C162.8 156.1 170.1 153 184.4 153H252.3V152.9Z" stroke="#2B5238" stroke-width="3.5" stroke-miterlimit="10" stroke-linecap="square"/>
<path d="M66.1997 152.9V27H134.1C134.1 27 159.9 26.5 159.9 36.7V156.9C159.9 157.4 159.4 157.7 158.9 157.7C158.4 157.7 158.7 157.7 158.5 157.6C155.7 156.1 148.4 153 134.1 153H66.1997V152.9Z" stroke="#2B5238" stroke-width="3.5" stroke-miterlimit="10" stroke-linecap="square"/>
<path d="M138.7 139.1H82.6997V21.2H138.7C138.7 21.2 159.9 20.7 159.9 30.3V142.8C159.9 143.2 159.6 143.5 159.2 143.5C158.8 143.5 158.9 143.5 158.8 143.4C156.6 142 150.5 139.1 138.7 139.1Z" fill="white" stroke="#2B5238" stroke-width="3.5" stroke-miterlimit="10" stroke-linecap="square"/>
<path d="M181.1 139.1H237V21.2H181.1C181.1 21.2 159.9 20.7 159.9 30.3V142.8C159.9 143.2 160.2 143.5 160.6 143.5C161 143.5 160.9 143.5 161 143.4C163.3 142 169.4 139.1 181.1 139.1Z" fill="white" stroke="#2B5238" stroke-width="3.5" stroke-miterlimit="10" stroke-linecap="square"/>
<path d="M103.1 86.9H139.5" stroke="#2B5238" stroke-width="3.5" stroke-miterlimit="10" stroke-linecap="square"/>
<path d="M103.1 54.4H139.5" stroke="#2B5238" stroke-width="3.5" stroke-miterlimit="10" stroke-linecap="square"/>
<path d="M103.1 70.6H139.5" stroke="#2B5238" stroke-width="3.5" stroke-miterlimit="10" stroke-linecap="square"/>
<path d="M103.1 103.1H139.5" stroke="#2B5238" stroke-width="3.5" stroke-miterlimit="10" stroke-linecap="square"/>
<path d="M177.1 49.2L174.3 51V48.3L177.5 46H180.3V59.9H177.1V49.1V49.2Z" fill="#2B5238"/>
<path d="M172.3 85.1L177.4 79.7C178.7 78.3 179.6 77.1 179.6 75.8C179.6 74.5 179 73.9 177.8 73.9C176.6 73.9 175.8 74.6 175.6 76.4H172.7C172.9 73.2 174.8 71.4 177.9 71.4C181 71.4 182.7 73.1 182.7 75.6C182.7 78.1 181.6 79 180 80.5L177.4 83.1H182.8V85.5H172.3V85V85.1Z" fill="#2B5238"/>
<path d="M172.4 106.8H175.2C175.3 108.1 176 109.1 177.7 109.1C179.4 109.1 180 108.4 180 107.1C180 105.8 179.3 105.1 177.8 105.1H176.7V103H177.7C179.2 103 179.8 102.3 179.8 101.2C179.8 100.1 179.2 99.5 177.9 99.5C176.6 99.5 175.8 100.3 175.6 101.6H172.8C173 99.1 174.8 97.2 177.9 97.2C181 97.2 182.7 98.8 182.7 101C182.7 103.2 181.8 103.5 180.4 104C182 104.3 183.1 105.5 183.1 107.3C183.1 109.9 181.1 111.6 177.7 111.6C174.3 111.6 172.4 109.8 172.2 107L172.4 106.8Z" fill="#2B5238"/>
<path d="M195 103.6H220.1" stroke="#2B5238" stroke-width="3.5" stroke-miterlimit="10" stroke-linecap="square"/>
<path d="M195 53.9H220.1" stroke="#2B5238" stroke-width="3.5" stroke-miterlimit="10" stroke-linecap="square"/>
<path d="M195 78.8H220.1" stroke="#2B5238" stroke-width="3.5" stroke-miterlimit="10" stroke-linecap="square"/>
</svg>
