<svg width="24" height="24" viewBox="0 0 24 24" fill="none" xmlns="http://www.w3.org/2000/svg">
<path d="M8.8125 15.5625C8.8125 15.5625 8.82031 15.5625 8.83594 15.5625C9.50781 15.5625 10.1016 15.7734 10.6172 16.1953C11.1484 16.6016 11.5 17.1172 11.6719 17.7422H20.6016V19.2422H11.6719V19.2656C11.5 19.8906 11.1484 20.4141 10.6172 20.8359C10.1016 21.2422 9.5 21.4453 8.8125 21.4453C8.14062 21.4453 7.53906 21.2422 7.00781 20.8359C6.47656 20.4141 6.125 19.8828 5.95312 19.2422H3.39844V17.7422H5.95312V17.7188C6.125 17.0938 6.46875 16.5781 6.98438 16.1719C7.51562 15.7656 8.125 15.5625 8.8125 15.5625ZM8.8125 19.9453C8.82812 19.9453 8.83594 19.9453 8.83594 19.9453C9.22656 19.9453 9.5625 19.8047 9.84375 19.5234C10.1406 19.2422 10.2891 18.8984 10.2891 18.4922C10.2891 18.1016 10.1484 17.7656 9.86719 17.4844C9.58594 17.2031 9.24219 17.0625 8.83594 17.0625C8.44531 17.0625 8.10938 17.2031 7.82812 17.4844C7.54688 17.7656 7.40625 18.1016 7.40625 18.4922C7.40625 18.8984 7.53906 19.2422 7.80469 19.5234C8.08594 19.7891 8.42188 19.9297 8.8125 19.9453ZM15.1875 9.07031C15.8594 9.07031 16.4609 9.27344 16.9922 9.67969C17.5234 10.0859 17.875 10.6094 18.0469 11.25H20.6016V12.75H18.0469V12.7734C17.8594 13.3984 17.5 13.9141 16.9688 14.3203C16.4531 14.7266 15.8594 14.9297 15.1875 14.9297C14.5 14.9297 13.8906 14.7266 13.3594 14.3203C12.8438 13.9141 12.4922 13.3906 12.3047 12.75H3.39844V11.25H12.3047L12.3281 11.2266C12.5 10.6016 12.8438 10.0859 13.3594 9.67969C13.8906 9.27344 14.4922 9.07031 15.1641 9.07031C15.1797 9.07031 15.1875 9.07031 15.1875 9.07031ZM15.1875 13.4297C15.5938 13.4297 15.9375 13.2891 16.2188 13.0078C16.5 12.7266 16.6406 12.3906 16.6406 12C16.6406 11.6094 16.5 11.2734 16.2188 10.9922C15.9375 10.7109 15.6016 10.5703 15.2109 10.5703C14.8047 10.5703 14.4609 10.7109 14.1797 10.9922C13.8984 11.2734 13.7578 11.6094 13.7578 12C13.7578 12.3906 13.8984 12.7266 14.1797 13.0078C14.4609 13.2891 14.7969 13.4297 15.1875 13.4297ZM11.6719 4.75781H20.6016V6.25781H11.6719V6.28125C11.5 6.90625 11.1484 7.42188 10.6172 7.82812C10.1016 8.23438 9.5 8.4375 8.8125 8.4375C8.14062 8.4375 7.53906 8.23438 7.00781 7.82812C6.47656 7.40625 6.125 6.88281 5.95312 6.25781H3.39844V4.75781H5.95312V4.73438C6.125 4.10938 6.46875 3.59375 6.98438 3.1875C7.51562 2.76562 8.125 2.55469 8.8125 2.55469C9.5 2.55469 10.1016 2.76562 10.6172 3.1875C11.1484 3.59375 11.5 4.11719 11.6719 4.75781ZM8.8125 6.9375C8.82812 6.9375 8.83594 6.9375 8.83594 6.9375C9.22656 6.9375 9.5625 6.79688 9.84375 6.51562C10.1406 6.23438 10.2891 5.89844 10.2891 5.50781C10.2891 5.10156 10.1484 4.75781 9.86719 4.47656C9.58594 4.19531 9.24219 4.05469 8.83594 4.05469C8.44531 4.05469 8.10938 4.19531 7.82812 4.47656C7.54688 4.75781 7.40625 5.10156 7.40625 5.50781C7.40625 5.89844 7.53906 6.23438 7.80469 6.51562C8.08594 6.79688 8.42188 6.9375 8.8125 6.9375Z" fill="black"/>
</svg>
