<svg width="24" height="24" viewBox="0 0 24 24" fill="none" xmlns="http://www.w3.org/2000/svg">
<path d="M12.4688 21.3047C12.4062 21.3203 12.3359 21.3281 12.2578 21.3281C12.1953 21.3281 12.125 21.3281 12.0469 21.3281C12.0469 21.3281 12.0391 21.3281 12.0234 21.3281C12.0234 21.3281 12.0156 21.3281 12 21.3281C10.7188 21.3281 9.50781 21.0859 8.36719 20.6016C7.24219 20.1172 6.25781 19.4531 5.41406 18.6094C4.57031 17.75 3.89844 16.7578 3.39844 15.6328C2.91406 14.4922 2.67188 13.2812 2.67188 12C2.67188 10.7188 2.91406 9.50781 3.39844 8.36719C3.89844 7.24219 4.57031 6.25781 5.41406 5.41406C6.25781 4.55469 7.24219 3.88281 8.36719 3.39844C9.50781 2.91406 10.7188 2.67188 12 2.67188C12.0156 2.67188 12.0234 2.67188 12.0234 2.67188C12.0391 2.67188 12.0547 2.67188 12.0703 2.67188C12.0703 2.67188 12.0781 2.67188 12.0938 2.67188C12.1094 2.67188 12.1172 2.67188 12.1172 2.67188H12.1406C12.2188 2.67188 12.2969 2.67969 12.375 2.69531C12.4531 2.69531 12.5312 2.69531 12.6094 2.69531C13.8281 2.77344 14.9688 3.07031 16.0312 3.58594C17.0938 4.10156 18.0156 4.78125 18.7969 5.625C19.5781 6.45312 20.1953 7.41406 20.6484 8.50781C21.1016 9.60156 21.3281 10.7656 21.3281 12C21.3281 13.25 21.1016 14.4219 20.6484 15.5156C20.1797 16.625 19.5469 17.6016 18.75 18.4453C17.9531 19.2734 17.0156 19.9453 15.9375 20.4609C14.8594 20.9609 13.7031 21.2422 12.4688 21.3047ZM4.5 14.25H6.5625C6.51562 13.8906 6.47656 13.5312 6.44531 13.1719C6.42969 12.7969 6.42188 12.4219 6.42188 12.0469V11.9766C6.42188 11.5859 6.4375 11.2109 6.46875 10.8516C6.5 10.4766 6.53906 10.1094 6.58594 9.75H4.5C4.39062 10.1094 4.30469 10.4766 4.24219 10.8516C4.19531 11.2266 4.17188 11.6094 4.17188 12C4.17188 12.3906 4.19531 12.7734 4.24219 13.1484C4.30469 13.5234 4.39062 13.8906 4.5 14.25ZM8.08594 14.25H11.25L11.2734 9.75H8.08594C8.03906 10.1094 8 10.4766 7.96875 10.8516C7.9375 11.2109 7.92188 11.5859 7.92188 11.9766V12.0469C7.92188 12.4375 7.9375 12.8125 7.96875 13.1719C8 13.5312 8.03906 13.8906 8.08594 14.25ZM13.6641 4.6875C13.5234 4.59375 13.3828 4.51562 13.2422 4.45312C13.1016 4.375 12.9531 4.3125 12.7969 4.26562L12.7734 8.25H15.6562C15.625 8.10938 15.5859 7.96875 15.5391 7.82812C15.5078 7.6875 15.4688 7.55469 15.4219 7.42969C15.2031 6.78906 14.9375 6.24219 14.625 5.78906C14.3281 5.32031 14.0078 4.95312 13.6641 4.6875ZM9.21094 6.28125C9.05469 6.5625 8.90625 6.875 8.76562 7.21875C8.64062 7.54688 8.52344 7.89062 8.41406 8.25H11.2734L11.2969 4.3125C11.1719 4.35938 11.0469 4.41406 10.9219 4.47656C10.7969 4.53906 10.6797 4.60938 10.5703 4.6875C10.3203 4.875 10.0781 5.10156 9.84375 5.36719C9.625 5.63281 9.41406 5.9375 9.21094 6.28125ZM8.39062 15.75C8.4375 15.8906 8.47656 16.0312 8.50781 16.1719C8.55469 16.2969 8.60156 16.4219 8.64844 16.5469C8.88281 17.1875 9.15625 17.7422 9.46875 18.2109C9.78125 18.6797 10.125 19.0391 10.5 19.2891C10.6094 19.3828 10.7188 19.4609 10.8281 19.5234C10.9531 19.5859 11.0781 19.6406 11.2031 19.6875L11.2266 15.75H8.39062ZM14.8828 17.7188C15.0234 17.4375 15.1562 17.1328 15.2812 16.8047C15.4062 16.4766 15.5234 16.125 15.6328 15.75H12.7266L12.7031 19.7344C12.8594 19.6875 13.0078 19.6328 13.1484 19.5703C13.3047 19.4922 13.4531 19.4062 13.5938 19.3125C13.8281 19.1406 14.0547 18.9219 14.2734 18.6562C14.4922 18.3906 14.6953 18.0781 14.8828 17.7188ZM15.9141 14.25C15.9766 13.8906 16.0156 13.5312 16.0312 13.1719C16.0625 12.7969 16.0781 12.4141 16.0781 12.0234V11.9297C16.0781 11.5547 16.0625 11.1875 16.0312 10.8281C16.0156 10.4531 15.9844 10.0938 15.9375 9.75H12.7734L12.75 14.25H15.9141ZM17.5781 11.9297V12.0234C17.5781 12.4141 17.5625 12.7969 17.5312 13.1719C17.5156 13.5312 17.4844 13.8906 17.4375 14.25H19.5C19.6094 13.8906 19.6875 13.5234 19.7344 13.1484C19.7969 12.7734 19.8281 12.3906 19.8281 12C19.8281 11.6094 19.7969 11.2266 19.7344 10.8516C19.6875 10.4766 19.6094 10.1094 19.5 9.75H17.4609C17.4922 10.1094 17.5156 10.4688 17.5312 10.8281C17.5625 11.1875 17.5781 11.5547 17.5781 11.9297ZM17.5312 6.46875C17.3281 6.25 17.1016 6.04688 16.8516 5.85938C16.6172 5.67188 16.375 5.5 16.125 5.34375C16.1406 5.39062 16.1562 5.42969 16.1719 5.46094C16.2031 5.49219 16.2266 5.53125 16.2422 5.57812C16.4609 5.96875 16.6484 6.39062 16.8047 6.84375C16.9609 7.29688 17.0938 7.76562 17.2031 8.25H18.8906C18.7031 7.92188 18.4922 7.60938 18.2578 7.3125C18.0391 7.01562 17.7969 6.73438 17.5312 6.46875ZM5.13281 8.25H6.86719C6.92969 8.03125 6.99219 7.8125 7.05469 7.59375C7.11719 7.35938 7.1875 7.13281 7.26562 6.91406C7.39062 6.60156 7.52344 6.30469 7.66406 6.02344C7.80469 5.74219 7.95312 5.46875 8.10938 5.20312C7.8125 5.375 7.52344 5.57031 7.24219 5.78906C6.97656 5.99219 6.71875 6.21875 6.46875 6.46875C6.20312 6.73438 5.95312 7.01562 5.71875 7.3125C5.5 7.60938 5.30469 7.92188 5.13281 8.25ZM6.46875 17.5312C6.70312 17.7656 6.95312 17.9844 7.21875 18.1875C7.48438 18.3906 7.75781 18.5781 8.03906 18.75C8.00781 18.7031 7.97656 18.6562 7.94531 18.6094C7.91406 18.5469 7.88281 18.4922 7.85156 18.4453C7.63281 18.0391 7.4375 17.6172 7.26562 17.1797C7.10938 16.7266 6.96875 16.25 6.84375 15.75H5.13281C5.30469 16.0781 5.5 16.3906 5.71875 16.6875C5.95312 16.9844 6.20312 17.2656 6.46875 17.5312ZM17.5312 17.5312C17.7969 17.2656 18.0391 16.9844 18.2578 16.6875C18.4922 16.3906 18.7031 16.0781 18.8906 15.75H17.1562C17.1094 15.9688 17.0547 16.1875 16.9922 16.4062C16.9297 16.625 16.8672 16.8438 16.8047 17.0625C16.6953 17.3594 16.5781 17.6484 16.4531 17.9297C16.3281 18.1953 16.1953 18.4531 16.0547 18.7031C16.3203 18.5312 16.5781 18.3516 16.8281 18.1641C17.0781 17.9766 17.3125 17.7656 17.5312 17.5312Z" fill="black"/>
</svg>
