<svg width="24" height="24" viewBox="0 0 24 24" fill="none" xmlns="http://www.w3.org/2000/svg">
<path d="M19.3008 3.1875H21.4336V7.125C21.4336 7.90625 21.168 8.59375 20.6367 9.1875C20.1211 9.76562 19.4805 10.1016 18.7148 10.1953V13.2422C18.7148 14.3672 18.3164 15.3281 17.5195 16.125C16.7383 16.9062 15.7852 17.2969 14.6602 17.2969C14.6602 17.2969 14.6523 17.2969 14.6367 17.2969C14.6367 17.2969 14.6289 17.2969 14.6133 17.2969C14.3008 17.2969 13.9961 17.2656 13.6992 17.2031C13.4023 17.125 13.1289 17.0156 12.8789 16.875L8.94141 20.8125L8.56641 20.4375C8.34766 20.2188 8.12891 20.0078 7.91016 19.8047C7.70703 19.5859 7.50391 19.375 7.30078 19.1719C6.78516 18.6562 6.23828 18.1172 5.66016 17.5547C5.09766 16.9766 4.45703 16.3281 3.73828 15.6094C3.37891 15.2656 3.08984 14.8672 2.87109 14.4141C2.66797 13.9453 2.56641 13.4453 2.56641 12.9141C2.56641 12.8984 2.56641 12.8828 2.56641 12.8672C2.58203 12.0547 2.83203 11.3359 3.31641 10.7109C3.81641 10.0859 4.44922 9.66406 5.21484 9.44531H5.19141C5.34766 9.39844 5.51172 9.36719 5.68359 9.35156C5.85547 9.32031 6.02734 9.30469 6.19922 9.30469C6.68359 9.30469 7.14453 9.40625 7.58203 9.60938C8.01953 9.79688 8.39453 10.0547 8.70703 10.3828C8.73828 10.4141 8.76953 10.4531 8.80078 10.5C8.84766 10.5312 8.88672 10.5625 8.91797 10.5938C8.94922 10.5625 8.98047 10.5391 9.01172 10.5234C9.04297 10.4922 9.07422 10.4609 9.10547 10.4297C9.43359 10.0859 9.81641 9.82031 10.2539 9.63281C10.707 9.42969 11.1914 9.32812 11.707 9.32812C12.4258 9.32812 13.0742 9.52344 13.6523 9.91406C14.2461 10.3047 14.6836 10.8125 14.9648 11.4375V11.4141C15.0742 11.6484 15.1602 11.8984 15.2227 12.1641C15.2852 12.4141 15.3164 12.6797 15.3164 12.9609C15.3164 13.3828 15.2461 13.7891 15.1055 14.1797C14.9648 14.5547 14.7695 14.8906 14.5195 15.1875C14.4727 15.2656 14.418 15.3438 14.3555 15.4219C14.293 15.4844 14.2305 15.5469 14.168 15.6094L13.6289 16.125C13.7852 16.1875 13.9492 16.2344 14.1211 16.2656C14.293 16.2969 14.4648 16.3125 14.6367 16.3125C14.6523 16.3125 14.6602 16.3125 14.6602 16.3125C15.5039 16.2969 16.2227 15.9922 16.8164 15.3984C17.4102 14.8047 17.707 14.0859 17.707 13.2422V10.1719L17.6836 10.1484C16.9805 10.0078 16.3945 9.65625 15.9258 9.09375C15.457 8.53125 15.2227 7.875 15.2227 7.125V3.1875H17.3086V4.19531H16.207V7.125C16.207 7.70312 16.4102 8.20312 16.8164 8.625C17.2383 9.03125 17.7383 9.23438 18.3164 9.23438C18.8945 9.23438 19.3867 9.03125 19.793 8.625C20.2148 8.20312 20.4258 7.70312 20.4258 7.125V4.19531H19.3008V3.1875ZM8.94141 19.4062L12.0352 16.3125C11.8945 16.1875 11.7617 16.0625 11.6367 15.9375C11.5117 15.7969 11.3867 15.6484 11.2617 15.4922C11.2148 15.4609 11.1758 15.4297 11.1445 15.3984C11.1133 15.3516 11.0742 15.3047 11.0273 15.2578H11.0508C10.9883 15.2734 10.918 15.2891 10.8398 15.3047C10.7773 15.3047 10.707 15.3047 10.6289 15.3047C10.2383 15.3047 9.89453 15.1641 9.59766 14.8828C9.31641 14.6016 9.17578 14.2578 9.17578 13.8516C9.17578 13.4609 9.31641 13.125 9.59766 12.8438C9.89453 12.5469 10.2383 12.3984 10.6289 12.3984C11.0352 12.3984 11.3789 12.5469 11.6602 12.8438C11.9414 13.125 12.082 13.4609 12.082 13.8516C12.082 14.0078 12.0586 14.1562 12.0117 14.2969C11.9805 14.4219 11.9258 14.5469 11.8477 14.6719C11.8789 14.6875 11.9023 14.7109 11.918 14.7422C11.9492 14.7734 11.9805 14.8047 12.0117 14.8359V14.8594C12.1211 14.9844 12.2383 15.1094 12.3633 15.2344C12.4883 15.3594 12.6133 15.4844 12.7383 15.6094L13.4648 14.9062C13.5117 14.8594 13.5508 14.8125 13.582 14.7656C13.6289 14.7031 13.6758 14.6484 13.7227 14.6016C13.9102 14.3828 14.0508 14.1328 14.1445 13.8516C14.2539 13.5703 14.3086 13.2734 14.3086 12.9609C14.3086 12.7578 14.2852 12.5625 14.2383 12.375C14.207 12.1875 14.1523 12.0156 14.0742 11.8594L14.0508 11.8359C13.8477 11.3984 13.5352 11.0391 13.1133 10.7578C12.6914 10.4766 12.2227 10.3359 11.707 10.3359C11.332 10.3359 10.9805 10.4062 10.6523 10.5469C10.3242 10.6875 10.043 10.8828 9.80859 11.1328C9.76172 11.1641 9.71484 11.2031 9.66797 11.25C9.63672 11.2969 9.60547 11.3438 9.57422 11.3906L8.91797 12.0703L8.47266 11.6016C8.44141 11.5703 8.41016 11.5391 8.37891 11.5078C8.36328 11.4766 8.33984 11.4531 8.30859 11.4375L8.21484 11.2969H8.19141C8.17578 11.2656 8.15234 11.2344 8.12109 11.2031C8.08984 11.1719 8.05859 11.1406 8.02734 11.1094H8.00391C7.78516 10.8594 7.51953 10.6641 7.20703 10.5234C6.89453 10.3828 6.56641 10.3125 6.22266 10.3125C6.22266 10.3125 6.21484 10.3125 6.19922 10.3125C6.07422 10.3125 5.94922 10.3203 5.82422 10.3359C5.69922 10.3516 5.58203 10.375 5.47266 10.4062H5.44922C4.91797 10.5625 4.47266 10.8672 4.11328 11.3203C3.75391 11.7734 3.57422 12.2969 3.57422 12.8906C3.57422 12.8906 3.57422 12.8984 3.57422 12.9141C3.57422 13.3047 3.64453 13.6719 3.78516 14.0156C3.94141 14.3438 4.15234 14.6328 4.41797 14.8828C5.15234 15.6172 5.80078 16.2734 6.36328 16.8516C6.94141 17.4141 7.48828 17.9453 8.00391 18.4453C8.16016 18.6016 8.31641 18.7578 8.47266 18.9141C8.62891 19.0703 8.78516 19.2344 8.94141 19.4062Z" fill="black"/>
</svg>
