<svg width="24" height="24" viewBox="0 0 24 24" fill="none" xmlns="http://www.w3.org/2000/svg">
<path d="M7.09131 3.44531H7.11475C7.78662 3.44531 8.41162 3.57812 8.98975 3.84375C9.5835 4.10938 10.0991 4.46875 10.5366 4.92188C10.5991 4.98438 10.7944 5.1875 11.1226 5.53125C11.4507 5.875 11.7319 6.17969 11.9663 6.44531C12.2163 6.19531 12.4976 5.90625 12.8101 5.57812C13.1226 5.25 13.3022 5.05469 13.3491 4.99219C13.8179 4.52344 14.3569 4.15625 14.9663 3.89062C15.5913 3.60938 16.2554 3.46094 16.9585 3.44531H16.9819C17.9819 3.44531 18.8882 3.71875 19.7007 4.26562C20.5132 4.8125 21.1226 5.52344 21.5288 6.39844C21.9351 7.28906 22.0757 8.17188 21.9507 9.04688C21.8413 9.92188 21.4663 10.7891 20.8257 11.6484C20.7476 11.7578 20.6616 11.8594 20.5679 11.9531C20.4897 12.0469 20.4038 12.1406 20.3101 12.2344L11.9897 20.5547L11.6382 20.2031C11.6226 20.1875 11.2397 19.8047 10.4897 19.0547C9.73975 18.3203 8.896 17.4844 7.9585 16.5469C7.021 15.6094 6.13037 14.7188 5.28662 13.875C4.42725 13.0156 3.88037 12.4688 3.646 12.2344C3.146 11.75 2.74756 11.1797 2.45068 10.5234C2.15381 9.85156 2.00537 9.14062 2.00537 8.39062C2.00537 7.25 2.34912 6.25 3.03662 5.39062C3.72412 4.51562 4.59131 3.92969 5.63818 3.63281H5.61475C5.84912 3.57031 6.09131 3.52344 6.34131 3.49219C6.59131 3.46094 6.84131 3.44531 7.09131 3.44531ZM11.9897 19.1484L19.1147 12.0234H17.146L15.3413 13.8047L14.0288 10.5703L11.8022 13.7109L10.7241 12.0703L9.4585 14.0625L7.63037 10.8281L6.92725 11.8125H4.65381C4.99756 12.1562 5.50537 12.6719 6.17725 13.3594C6.86475 14.0312 7.5835 14.7422 8.3335 15.4922C9.0835 16.2422 9.79443 16.9609 10.4663 17.6484C11.1538 18.3203 11.6616 18.8203 11.9897 19.1484ZM20.0288 11.0391C20.5601 10.3359 20.8726 9.63281 20.9663 8.92969C21.0601 8.22656 20.9429 7.51562 20.6147 6.79688V6.77344C20.3022 6.08594 19.8179 5.53125 19.1616 5.10938C18.5054 4.67188 17.7788 4.45312 16.9819 4.45312C16.4038 4.45312 15.8647 4.57031 15.3647 4.80469C14.8647 5.02344 14.4351 5.32031 14.0757 5.69531C13.9976 5.77344 13.7397 6.03906 13.3022 6.49219C12.8804 6.94531 12.5601 7.28906 12.3413 7.52344L11.9663 7.92188L11.5913 7.52344C11.2944 7.19531 10.9429 6.8125 10.5366 6.375C10.1304 5.9375 9.896 5.6875 9.8335 5.625C9.48975 5.26562 9.0835 4.98438 8.61475 4.78125C8.146 4.5625 7.646 4.44531 7.11475 4.42969C6.896 4.42969 6.68506 4.44531 6.48193 4.47656C6.27881 4.50781 6.0835 4.54688 5.896 4.59375L5.87256 4.61719C5.04443 4.83594 4.35693 5.29688 3.81006 6C3.27881 6.6875 3.01318 7.48438 3.01318 8.39062C3.01318 8.39062 3.01318 8.39844 3.01318 8.41406C3.01318 8.86719 3.07568 9.29688 3.20068 9.70312C3.34131 10.1094 3.53662 10.4844 3.78662 10.8281H6.41162L7.72412 8.97656L9.50537 12.1406L10.7007 10.2422L11.8257 11.9531L14.2866 8.50781L15.7163 12.0469L16.7241 11.0156L20.0288 11.0391Z" fill="black"/>
</svg>
