<svg width="24" height="24" viewBox="0 0 24 24" fill="none" xmlns="http://www.w3.org/2000/svg">
<path d="M15.375 12C15.375 11.8438 15.3125 11.7266 15.1875 11.6484C15.0625 11.5703 14.8359 11.5078 14.5078 11.4609C13.7734 11.3672 13.2422 11.1953 12.9141 10.9453C12.6016 10.6953 12.4453 10.2891 12.4453 9.72656C12.4453 9.27344 12.5938 8.89844 12.8906 8.60156C13.1875 8.28906 13.6016 8.09375 14.1328 8.01562V7.17188H15.0469V8.01562C15.5156 8.03125 15.9141 8.20312 16.2422 8.53125C16.5703 8.85938 16.7344 9.25 16.7344 9.70312H15.2812C15.2656 9.54688 15.1953 9.41406 15.0703 9.30469C14.9609 9.17969 14.8203 9.11719 14.6484 9.11719C14.6328 9.11719 14.6172 9.11719 14.6016 9.11719C14.5859 9.11719 14.5703 9.11719 14.5547 9.11719C14.3516 9.11719 14.1953 9.16406 14.0859 9.25781C13.9766 9.33594 13.9219 9.44531 13.9219 9.58594C13.9219 9.74219 13.9766 9.85938 14.0859 9.9375C14.2109 10.0156 14.4453 10.0781 14.7891 10.125C15.4453 10.2031 15.9609 10.3594 16.3359 10.5938C16.7109 10.8125 16.8984 11.2266 16.8984 11.8359C16.8984 12.2891 16.7344 12.6875 16.4062 13.0312C16.0938 13.3594 15.6406 13.5625 15.0469 13.6406V14.4609H14.1328V13.6406C13.5391 13.5625 13.0859 13.375 12.7734 13.0781C12.4766 12.7656 12.3203 12.3438 12.3047 11.8125H13.8047C13.8203 12.0156 13.8828 12.1875 13.9922 12.3281C14.1172 12.4688 14.3438 12.5391 14.6719 12.5391C14.9062 12.5391 15.0781 12.4922 15.1875 12.3984C15.3125 12.2891 15.375 12.1562 15.375 12ZM16.3125 17.4844C15.9531 17.7656 15.5625 18.0156 15.1406 18.2344C14.7344 18.4375 14.3047 18.6094 13.8516 18.75H13.8047C13.2109 19.2188 12.5469 19.5859 11.8125 19.8516C11.0781 20.1016 10.3047 20.2266 9.49219 20.2266C8.52344 20.2266 7.61719 20.0469 6.77344 19.6875C5.92969 19.3125 5.1875 18.8125 4.54688 18.1875C3.92188 17.5625 3.42188 16.8203 3.04688 15.9609C2.6875 15.1172 2.50781 14.2109 2.50781 13.2422C2.50781 12.4453 2.63281 11.6797 2.88281 10.9453C3.14844 10.2266 3.50781 9.57031 3.96094 8.97656C4.41406 8.38281 4.95312 7.875 5.57812 7.45312C6.20312 7.03125 6.89062 6.71875 7.64062 6.51562L7.6875 6.49219C8.04688 6.21094 8.42969 5.96875 8.83594 5.76562C9.25781 5.54688 9.69531 5.375 10.1484 5.25H10.2188C10.7969 4.78125 11.4531 4.42188 12.1875 4.17188C12.9219 3.90625 13.6953 3.77344 14.5078 3.77344C15.4609 3.77344 16.3672 3.95312 17.2266 4.3125C18.0703 4.6875 18.8047 5.1875 19.4297 5.8125C20.0703 6.4375 20.5703 7.17969 20.9297 8.03906C21.3047 8.88281 21.4922 9.78906 21.4922 10.7578C21.4922 11.5547 21.3594 12.3125 21.0938 13.0312C20.8438 13.7656 20.4844 14.4297 20.0156 15.0234C19.5625 15.6016 19.0234 16.1094 18.3984 16.5469C17.7734 16.9688 17.0938 17.2812 16.3594 17.4844H16.3125ZM13.8047 17.6953C12.9141 17.6172 12.0859 17.375 11.3203 16.9688C10.5547 16.5781 9.89062 16.0781 9.32812 15.4688C8.76562 14.8438 8.32031 14.125 7.99219 13.3125C7.66406 12.5156 7.5 11.6641 7.5 10.7578C7.5 10.0859 7.59375 9.4375 7.78125 8.8125C7.96875 8.1875 8.22656 7.60938 8.55469 7.07812L8.53125 7.10156C7.76562 7.66406 7.14844 8.375 6.67969 9.23438C6.22656 10.0781 6 11 6 12C6 12.8281 6.15625 13.6094 6.46875 14.3438C6.78125 15.0625 7.20312 15.6953 7.73438 16.2422C8.28125 16.7734 8.92188 17.1953 9.65625 17.5078C10.375 17.8203 11.1484 17.9766 11.9766 17.9766C12.3047 17.9766 12.625 17.9531 12.9375 17.9062C13.25 17.8594 13.5547 17.7891 13.8516 17.6953H13.8047ZM14.4844 4.75781C13.6719 4.75781 12.8984 4.91406 12.1641 5.22656C11.4297 5.53906 10.7891 5.96875 10.2422 6.51562C9.71094 7.0625 9.28906 7.69531 8.97656 8.41406C8.66406 9.14844 8.50781 9.92969 8.50781 10.7578C8.50781 11.5859 8.66406 12.3594 8.97656 13.0781C9.28906 13.8125 9.71094 14.4531 10.2422 15C10.7891 15.5312 11.4297 15.9531 12.1641 16.2656C12.8984 16.5781 13.6719 16.7344 14.4844 16.7344C15.3125 16.7344 16.0938 16.5781 16.8281 16.2656C17.5469 15.9531 18.1797 15.5312 18.7266 15C19.2734 14.4531 19.7031 13.8125 20.0156 13.0781C20.3281 12.3594 20.4844 11.5859 20.4844 10.7578C20.4844 9.92969 20.3281 9.14844 20.0156 8.41406C19.7031 7.69531 19.2734 7.0625 18.7266 6.51562C18.1797 5.96875 17.5469 5.53906 16.8281 5.22656C16.0938 4.91406 15.3125 4.75781 14.4844 4.75781ZM9.49219 19.2422C9.82031 19.2422 10.1328 19.2188 10.4297 19.1719C10.7422 19.1094 11.0469 19.0312 11.3438 18.9375L11.2969 18.9609C10.4062 18.8672 9.57812 18.6172 8.8125 18.2109C8.04688 17.8203 7.38281 17.3203 6.82031 16.7109C6.25781 16.0859 5.8125 15.3672 5.48438 14.5547C5.17188 13.7578 5.01562 12.9062 5.01562 12C5.01562 11.3281 5.10156 10.6875 5.27344 10.0781C5.46094 9.45312 5.71875 8.875 6.04688 8.34375L6.02344 8.36719C5.25781 8.91406 4.64844 9.61719 4.19531 10.4766C3.74219 11.3203 3.51562 12.2422 3.51562 13.2422C3.51562 14.0703 3.67188 14.8516 3.98438 15.5859C4.29688 16.3047 4.71875 16.9375 5.25 17.4844C5.79688 18.0312 6.4375 18.4609 7.17188 18.7734C7.89062 19.0859 8.66406 19.2422 9.49219 19.2422Z" fill="black"/>
</svg>
