<svg width="17" height="19" viewBox="0 0 17 19" fill="none" xmlns="http://www.w3.org/2000/svg">
<path d="M16.2891 7.00781L16.2656 6.96094C16.4219 7.36719 16.5391 7.79688 16.6172 8.25C16.7109 8.6875 16.7578 9.13281 16.7578 9.58594C16.7578 9.60156 16.7578 9.625 16.7578 9.65625C16.7578 9.67188 16.7578 9.6875 16.7578 9.70312V9.72656C16.7422 10.7734 16.5938 11.7812 16.3125 12.75C16.0312 13.7031 15.6484 14.5938 15.1641 15.4219L15.1406 15.4453C14.8281 15.9922 14.4375 16.4922 13.9688 16.9453C13.5 17.3828 12.9688 17.75 12.375 18.0469L12.4219 18.0234C11.8125 18.3359 11.1562 18.5781 10.4531 18.75C9.76562 18.9062 9.05469 18.9844 8.32031 18.9844C8.30469 18.9844 8.28906 18.9844 8.27344 18.9844C8.27344 18.9844 8.26562 18.9844 8.25 18.9844H8.22656C8.22656 18.9844 8.21875 18.9844 8.20312 18.9844C7.46875 18.9844 6.75781 18.8984 6.07031 18.7266C5.39844 18.5391 4.77344 18.2812 4.19531 17.9531L4.14844 17.9297C3.39844 17.5078 2.73438 16.9609 2.15625 16.2891C1.57812 15.6172 1.125 14.8594 0.796875 14.0156L0.84375 14.0859C0.578125 13.4453 0.367188 12.7734 0.210938 12.0703C0.0703125 11.3672 0 10.6484 0 9.91406C0 9.89844 0 9.88281 0 9.86719C0 9.83594 0 9.8125 0 9.79688C0 9.29688 0.046875 8.8125 0.140625 8.34375C0.234375 7.85938 0.359375 7.40625 0.515625 6.98438L0.539062 6.9375C0.695312 6.51562 0.914062 6.125 1.19531 5.76562C1.49219 5.40625 1.82812 5.09375 2.20312 4.82812C2.57812 4.5625 2.98438 4.35938 3.42188 4.21875C3.875 4.07812 4.34375 4.00781 4.82812 4.00781C4.84375 4.00781 4.85156 4.00781 4.85156 4.00781H4.875C5.21875 4.02344 5.55469 4.05469 5.88281 4.10156C6.21094 4.13281 6.52344 4.17969 6.82031 4.24219C6.94531 4.27344 7.07031 4.30469 7.19531 4.33594C7.32031 4.35156 7.44531 4.36719 7.57031 4.38281V4.35938C7.58594 3.8125 7.65625 3.28125 7.78125 2.76562C7.92188 2.25 8.10156 1.77344 8.32031 1.33594L8.34375 1.26562C8.45312 1.04688 8.57031 0.828125 8.69531 0.609375C8.82031 0.390625 8.94531 0.1875 9.07031 0L9.89062 0.585938C9.89062 0.585938 9.85938 0.625 9.79688 0.703125C9.75 0.765625 9.71094 0.828125 9.67969 0.890625L9.70312 0.84375C9.625 0.984375 9.54688 1.13281 9.46875 1.28906C9.39062 1.42969 9.3125 1.58594 9.23438 1.75781V1.71094C9.03125 2.13281 8.86719 2.57812 8.74219 3.04688C8.63281 3.5 8.57031 3.97656 8.55469 4.47656C8.58594 4.47656 8.60938 4.47656 8.625 4.47656C8.65625 4.47656 8.67969 4.47656 8.69531 4.47656C9.32031 4.47656 9.88281 4.4375 10.3828 4.35938C10.8984 4.28125 11.4297 4.23438 11.9766 4.21875C11.9766 4.21875 11.9844 4.21875 12 4.21875C12.5312 4.21875 13.0312 4.30469 13.5 4.47656C13.9844 4.63281 14.4219 4.85156 14.8125 5.13281H14.8359C15.1484 5.36719 15.4297 5.64062 15.6797 5.95312C15.9297 6.26562 16.1328 6.61719 16.2891 7.00781ZM14.2969 14.9297L14.2734 14.9766C14.7266 14.1953 15.0781 13.3672 15.3281 12.4922C15.5938 11.6016 15.7422 10.6719 15.7734 9.70312C15.7734 9.6875 15.7734 9.67188 15.7734 9.65625C15.7734 9.64062 15.7734 9.61719 15.7734 9.58594C15.7734 9.19531 15.7344 8.8125 15.6562 8.4375C15.5938 8.0625 15.4922 7.71094 15.3516 7.38281V7.35938C15.2422 7.07812 15.0938 6.82031 14.9062 6.58594C14.7188 6.35156 14.5 6.14062 14.25 5.95312L14.2734 5.97656C13.9453 5.74219 13.5859 5.5625 13.1953 5.4375C12.8203 5.29688 12.4219 5.22656 12 5.22656C12 5.22656 11.9922 5.22656 11.9766 5.22656C11.5234 5.22656 11.0312 5.27344 10.5 5.36719C9.98438 5.44531 9.38281 5.48438 8.69531 5.48438C8.69531 5.48438 8.6875 5.48438 8.67188 5.48438V5.50781C8.73438 5.77344 8.8125 6.03125 8.90625 6.28125C9.01562 6.51562 9.14844 6.73438 9.30469 6.9375H9.32812C9.4375 6.92188 9.54688 6.89844 9.65625 6.86719C9.78125 6.83594 9.89062 6.80469 9.98438 6.77344L10.0078 6.75C10.2422 6.6875 10.4531 6.59375 10.6406 6.46875C10.8438 6.32812 11.0234 6.17188 11.1797 6L11.9297 6.67969H11.9062C11.7031 6.91406 11.4688 7.11719 11.2031 7.28906C10.9375 7.46094 10.6484 7.60156 10.3359 7.71094L10.3594 7.6875C10.0781 7.79688 9.78125 7.88281 9.46875 7.94531C9.15625 7.99219 8.84375 8.01562 8.53125 8.01562C8.51562 8.01562 8.5 8.01562 8.48438 8.01562C7.90625 8.01562 7.35938 7.90625 6.84375 7.6875C6.32812 7.46875 5.875 7.17188 5.48438 6.79688L6.1875 6.07031C6.45312 6.32031 6.75 6.53125 7.07812 6.70312C7.42188 6.85938 7.78125 6.96094 8.15625 7.00781L8.17969 7.03125C8.05469 6.78125 7.94531 6.52344 7.85156 6.25781C7.75781 5.99219 7.6875 5.71094 7.64062 5.41406C7.46875 5.38281 7.29688 5.35156 7.125 5.32031C6.95312 5.28906 6.78906 5.25781 6.63281 5.22656L6.70312 5.25C6.40625 5.1875 6.10156 5.13281 5.78906 5.08594C5.49219 5.03906 5.17969 5.01562 4.85156 5.01562H4.875C4.85938 5.01562 4.85156 5.01562 4.85156 5.01562C4.85156 5.01562 4.84375 5.01562 4.82812 5.01562C4.4375 5.01562 4.0625 5.07031 3.70312 5.17969C3.35938 5.28906 3.04688 5.44531 2.76562 5.64844L2.74219 5.67188C2.46094 5.875 2.20312 6.11719 1.96875 6.39844C1.75 6.67969 1.57812 7 1.45312 7.35938V7.3125C1.3125 7.6875 1.20312 8.08594 1.125 8.50781C1.04688 8.92969 1.00781 9.35938 1.00781 9.79688C1.00781 9.8125 1.00781 9.83594 1.00781 9.86719C1.00781 9.88281 1.00781 9.89844 1.00781 9.91406C1.00781 10.5859 1.07031 11.2422 1.19531 11.8828C1.32031 12.5078 1.5 13.0938 1.73438 13.6406L1.75781 13.6875C2.02344 14.4062 2.40625 15.0547 2.90625 15.6328C3.42188 16.2109 4.01562 16.6953 4.6875 17.0859L4.64062 17.0625C5.17188 17.3594 5.73438 17.5938 6.32812 17.7656C6.9375 17.9219 7.5625 18 8.20312 18C8.21875 18 8.22656 18 8.22656 18H8.25C8.26562 18 8.27344 18 8.27344 18C8.28906 18 8.30469 18 8.32031 18C8.97656 18 9.60938 17.9297 10.2188 17.7891C10.8281 17.6328 11.3906 17.4219 11.9062 17.1562L11.9531 17.1328C12.4375 16.8984 12.875 16.5938 13.2656 16.2188C13.6719 15.8438 14.0156 15.4141 14.2969 14.9297ZM9.70312 3.375C9.70312 3.375 10.0859 3.46094 10.8516 3.63281C11.6328 3.78906 12.3828 3.65625 13.1016 3.23438C13.8359 2.82812 14.3203 2.25 14.5547 1.5C14.8047 0.734375 14.9297 0.351562 14.9297 0.351562C14.9297 0.351562 14.5391 0.273438 13.7578 0.117188C12.9922 -0.0546875 12.2422 0.0703125 11.5078 0.492188C10.7891 0.914062 10.3047 1.5 10.0547 2.25C9.82031 3 9.70312 3.375 9.70312 3.375Z" fill="black"/>
</svg>
