<svg width="24" height="24" viewBox="0 0 24 24" fill="none" xmlns="http://www.w3.org/2000/svg">
<path d="M12 12.8438C12.9062 12.8438 13.6719 12.5312 14.2969 11.9062C14.9375 11.2656 15.2578 10.5 15.2578 9.60938C15.2578 8.70312 14.9375 7.9375 14.2969 7.3125C13.6719 6.67188 12.9062 6.35156 12 6.35156C11.1094 6.35156 10.3438 6.67188 9.70312 7.3125C9.0625 7.9375 8.74219 8.70312 8.74219 9.60938C8.74219 10.5 9.0625 11.2656 9.70312 11.9062C10.3438 12.5312 11.1094 12.8438 12 12.8438ZM12 21.4922C11.9844 21.4922 11.625 21.0312 10.9219 20.1094C10.2031 19.2031 9.42188 18.1016 8.57812 16.8047C7.73438 15.5078 6.96094 14.1719 6.25781 12.7969C5.55469 11.4062 5.20312 10.2422 5.20312 9.30469C5.20312 8.36719 5.38281 7.48438 5.74219 6.65625C6.10156 5.82812 6.58594 5.10938 7.19531 4.5C7.80469 3.875 8.52344 3.39062 9.35156 3.04688C10.1797 2.6875 11.0625 2.50781 12 2.50781C12.9375 2.50781 13.8203 2.6875 14.6484 3.04688C15.4609 3.39062 16.1719 3.875 16.7812 4.5C17.4062 5.10938 17.8984 5.82812 18.2578 6.65625C18.6016 7.48438 18.7812 8.36719 18.7969 9.30469C18.7969 10.2422 18.4453 11.4062 17.7422 12.7969C17.0391 14.1719 16.2578 15.5078 15.3984 16.8047C14.5547 18.1016 13.7734 19.2031 13.0547 20.1094C12.3516 21.0312 12 21.4922 12 21.4922Z" fill="black"/>
</svg>
