<svg width="24" height="24" viewBox="0 0 24 24" fill="none" xmlns="http://www.w3.org/2000/svg">
<path d="M17.4258 11.0391H19.3242V21.4922H4.67578V11.0391H6.57422V7.94531C6.57422 7.19531 6.71484 6.48438 6.99609 5.8125C7.29297 5.15625 7.68359 4.58594 8.16797 4.10156C8.65234 3.61719 9.22266 3.22656 9.87891 2.92969C10.5508 2.64844 11.2617 2.50781 12.0117 2.50781C12.7461 2.50781 13.4492 2.64844 14.1211 2.92969C14.7773 3.22656 15.3477 3.61719 15.832 4.10156C16.332 4.58594 16.7227 5.15625 17.0039 5.8125C17.2852 6.48438 17.4258 7.19531 17.4258 7.94531V11.0391ZM12.0117 17.8828C12.4336 17.8828 12.793 17.7344 13.0898 17.4375C13.4023 17.125 13.5586 16.75 13.5586 16.3125C13.5586 15.8906 13.4023 15.5312 13.0898 15.2344C12.793 14.9219 12.4336 14.7656 12.0117 14.7656C11.5742 14.7656 11.1992 14.9219 10.8867 15.2344C10.5898 15.5312 10.4414 15.8906 10.4414 16.3125C10.4414 16.75 10.5898 17.125 10.8867 17.4375C11.1992 17.7344 11.5742 17.8828 12.0117 17.8828ZM15.9258 11.0391V7.94531C15.9258 6.85156 15.543 5.92188 14.7773 5.15625C14.0117 4.39062 13.0898 4.00781 12.0117 4.00781C10.918 4.00781 9.98828 4.39062 9.22266 5.15625C8.45703 5.92188 8.07422 6.85156 8.07422 7.94531V11.0391H15.9258Z" fill="black"/>
</svg>
