<svg width="200" height="90" viewBox="0 0 200 90" fill="none" xmlns="http://www.w3.org/2000/svg">
<path d="M40.1 32.2001H22.29C20.8983 32.2001 19.77 33.3283 19.77 34.7201V71.4201C19.77 72.8118 20.8983 73.9401 22.29 73.9401H40.1C41.4918 73.9401 42.62 72.8118 42.62 71.4201V34.7201C42.62 33.3283 41.4918 32.2001 40.1 32.2001Z" fill="white"/>
<path d="M180.23 46.4401C180.197 48.8589 179.663 51.2448 178.664 53.4475C177.664 55.6503 176.219 57.6225 174.42 59.2401L160.67 73.0001L146.92 59.2901C145.148 57.7011 143.723 55.7639 142.734 53.5993C141.745 51.4348 141.212 49.0896 141.17 46.7101C141.081 42.8134 142.157 38.9787 144.261 35.6975C146.364 32.4163 149.4 29.8381 152.979 28.2932C156.557 26.7484 160.515 26.3073 164.346 27.0265C168.177 27.7457 171.706 29.5925 174.48 32.3301C176.347 34.1676 177.82 36.3666 178.809 38.7926C179.798 41.2187 180.281 43.8208 180.23 46.4401Z" fill="white"/>
<path d="M131.5 65.2H54.6899V17.39C54.6899 16.735 54.9502 16.1067 55.4134 15.6435C55.8766 15.1803 56.5049 14.92 57.1599 14.92H129C129.655 14.92 130.283 15.1803 130.746 15.6435C131.21 16.1067 131.47 16.735 131.47 17.39L131.5 65.2Z" fill="white"/>
<path d="M130 63.69H56.1899V17.38C56.1899 17.1148 56.2953 16.8604 56.4828 16.6729C56.6704 16.4854 56.9247 16.38 57.1899 16.38H129C129.265 16.38 129.52 16.4854 129.707 16.6729C129.895 16.8604 130 17.1148 130 17.38V63.69Z" stroke="#1A5336" stroke-width="3" stroke-miterlimit="10" stroke-linecap="square"/>
<path d="M137.12 66.76H103.24V67.53C103.24 67.7087 103.17 67.8801 103.044 68.0074C102.919 68.1346 102.749 68.2074 102.57 68.21H83.62C83.5307 68.21 83.4423 68.1925 83.3598 68.1583C83.2773 68.1241 83.2023 68.074 83.1392 68.0109C83.076 67.9477 83.026 67.8728 82.9918 67.7903C82.9576 67.7078 82.94 67.6193 82.94 67.53V66.76H49.16C48.9451 66.7587 48.7321 66.7999 48.5332 66.8812C48.3343 66.9626 48.1534 67.0824 48.001 67.2339C47.8485 67.3854 47.7276 67.5655 47.645 67.7639C47.5625 67.9624 47.52 68.1751 47.52 68.39V72C47.52 72.2149 47.5625 72.4277 47.645 72.6261C47.7276 72.8245 47.8485 73.0047 48.001 73.1562C48.1534 73.3077 48.3343 73.4275 48.5332 73.5088C48.7321 73.5902 48.9451 73.6314 49.16 73.63H137.16C137.568 73.63 137.96 73.4678 138.249 73.179C138.538 72.8902 138.7 72.4985 138.7 72.09V68.3C138.7 68.0944 138.659 67.8908 138.579 67.7013C138.499 67.5118 138.382 67.3402 138.235 67.1967C138.088 67.0532 137.913 66.9406 137.722 66.8656C137.53 66.7906 137.326 66.7547 137.12 66.76Z" fill="#1A5336"/>
<path d="M40.1 33.7001H22.29C21.7267 33.7001 21.27 34.1567 21.27 34.7201V71.4201C21.27 71.9834 21.7267 72.4401 22.29 72.4401H40.1C40.6633 72.4401 41.12 71.9834 41.12 71.4201V34.7201C41.12 34.1567 40.6633 33.7001 40.1 33.7001Z" stroke="#1B5336" stroke-width="3" stroke-miterlimit="10"/>
<path d="M21.27 40.3H41.11" stroke="#1B5336" stroke-width="3" stroke-miterlimit="10"/>
<path d="M21.27 63.49H41.11" stroke="#1B5336" stroke-width="3" stroke-miterlimit="10"/>
<path d="M33.7599 66.76H28.6099V68.5H33.7599V66.76Z" fill="#1B5336"/>
<path d="M161.71 28.75C159.499 28.7561 157.312 29.2031 155.276 30.065C153.241 30.9269 151.397 32.1862 149.854 33.7693C148.311 35.3524 147.099 37.2275 146.29 39.2847C145.48 41.3419 145.09 43.5399 145.14 45.75C145.185 47.7402 145.64 49.6996 146.477 51.5061C147.313 53.3127 148.512 54.9275 150 56.25L161.68 67.89L173.39 56.19C174.897 54.8353 176.107 53.1837 176.945 51.3389C177.783 49.4941 178.231 47.496 178.26 45.47C178.288 43.2834 177.881 41.1131 177.063 39.0851C176.245 37.057 175.033 35.2117 173.496 33.6561C171.959 32.1006 170.128 30.8659 168.11 30.0236C166.092 29.1814 163.927 28.7485 161.74 28.75H161.71Z" fill="#00B624"/>
<path d="M150.88 41.3H165.44C168.97 41.3 170.61 43 170.61 47.3C170.61 52.95 168.15 53.64 164.75 53.64H158.9V43.7001H161.84V51.92H164.68C166.63 51.92 167.46 50.64 167.46 47.37C167.46 44.1 166.52 43.1 164.54 43.1H158.07V53.6301H155.15V43.0601H150.88V41.3Z" fill="white"/>
<path d="M160.67 70.8701L173.42 58.1201C180.42 51.8001 180.54 40.4301 173.42 33.3901C170.037 30.0242 165.455 28.1397 160.682 28.1509C155.91 28.1622 151.337 30.0683 147.97 33.4501C140.97 40.4501 140.85 51.9001 147.97 58.2201L160.67 70.8701Z" stroke="#1A5336" stroke-width="3" stroke-miterlimit="10"/>
<path d="M96.1899 37.7L86.8799 33.49L91.0999 42.8L92.6299 41.27L96.7899 45.42L98.8099 43.39L94.6599 39.24L96.1899 37.7Z" fill="#1A5336"/>
</svg>
