<svg width="24" height="24" viewBox="0 0 24 24" fill="none" xmlns="http://www.w3.org/2000/svg">
<path d="M10.6523 6.60938C10.6523 6.40625 10.6836 6.22656 10.7461 6.07031C10.8242 5.91406 10.9258 5.75781 11.0508 5.60156C11.1758 5.44531 11.3164 5.34375 11.4727 5.29688C11.6289 5.23438 11.8086 5.20312 12.0117 5.20312C12.1992 5.20312 12.3711 5.24219 12.5273 5.32031C12.6836 5.38281 12.8242 5.47656 12.9492 5.60156C13.0742 5.72656 13.168 5.875 13.2305 6.04688C13.3086 6.21875 13.3477 6.40625 13.3477 6.60938C13.3477 6.79688 13.3086 6.97656 13.2305 7.14844C13.168 7.32031 13.0742 7.46875 12.9492 7.59375C12.8242 7.71875 12.6836 7.82031 12.5273 7.89844C12.3711 7.96094 12.1992 7.99219 12.0117 7.99219C11.8086 7.99219 11.6367 7.96094 11.4961 7.89844C11.3555 7.82031 11.207 7.71875 11.0508 7.59375C10.8945 7.46875 10.7852 7.32031 10.7227 7.14844C10.6758 6.97656 10.6523 6.79688 10.6523 6.60938ZM10.6523 12C10.6523 11.7969 10.6836 11.6094 10.7461 11.4375C10.8242 11.2656 10.9258 11.1172 11.0508 10.9922C11.1758 10.8672 11.3164 10.7734 11.4727 10.7109C11.6289 10.6328 11.8086 10.5938 12.0117 10.5938C12.1992 10.5938 12.3633 10.6328 12.5039 10.7109C12.6445 10.7734 12.7773 10.8672 12.9023 10.9922C13.0273 11.1172 13.1211 11.2656 13.1836 11.4375C13.2617 11.6094 13.3008 11.7969 13.3008 12C13.3008 12.2031 13.2617 12.3906 13.1836 12.5625C13.1211 12.7344 13.0273 12.8828 12.9023 13.0078C12.7773 13.1328 12.6367 13.2344 12.4805 13.3125C12.3242 13.375 12.1445 13.4062 11.9414 13.4062C11.7539 13.4062 11.5898 13.375 11.4492 13.3125C11.3086 13.25 11.1758 13.1484 11.0508 13.0078C10.9258 12.8516 10.8242 12.6953 10.7461 12.5391C10.6836 12.3828 10.6523 12.2031 10.6523 12ZM10.6523 17.3906C10.6523 17.2031 10.6836 17.0234 10.7461 16.8516C10.8242 16.6797 10.9258 16.5312 11.0508 16.4062C11.1758 16.2812 11.3086 16.1875 11.4492 16.125C11.6055 16.0469 11.7695 16.0078 11.9414 16.0078C12.1289 16.0078 12.3008 16.0469 12.457 16.125C12.6289 16.1875 12.7773 16.2812 12.9023 16.4062C13.0273 16.5312 13.1211 16.6797 13.1836 16.8516C13.2617 17.0234 13.3008 17.2031 13.3008 17.3906C13.3008 17.5938 13.2617 17.7812 13.1836 17.9531C13.1211 18.125 13.0273 18.2734 12.9023 18.3984C12.7773 18.5234 12.6367 18.625 12.4805 18.7031C12.3242 18.7656 12.1445 18.7969 11.9414 18.7969C11.7539 18.7969 11.5898 18.7656 11.4492 18.7031C11.3086 18.625 11.1602 18.5234 11.0039 18.3984C10.8477 18.2734 10.7461 18.125 10.6992 17.9531C10.668 17.7812 10.6523 17.5938 10.6523 17.3906Z" fill="black"/>
</svg>
