<svg width="24" height="24" viewBox="0 0 24 24" fill="none" xmlns="http://www.w3.org/2000/svg">
<path d="M16.1016 2.50781C16.3672 2.50781 16.5938 2.60938 16.7812 2.8125C16.9844 3 17.0859 3.22656 17.0859 3.49219V20.5078C17.0859 20.7734 16.9844 21.0078 16.7812 21.2109C16.5938 21.3984 16.3672 21.4922 16.1016 21.4922H7.875C7.60938 21.4922 7.38281 21.3984 7.19531 21.2109C7.00781 21.0078 6.91406 20.7734 6.91406 20.5078V3.49219C6.91406 3.22656 7.00781 3 7.19531 2.8125C7.38281 2.60938 7.60938 2.50781 7.875 2.50781H16.1016ZM13.1484 20.1797V19.5H10.8516V20.1797H13.1484ZM7.92188 18.1875H16.0781V5.15625H7.92188V18.1875Z" fill="black"/>
</svg>
