<svg width="24" height="24" viewBox="0 0 24 24" fill="none" xmlns="http://www.w3.org/2000/svg">
<path d="M19.1953 18.5273C19.1953 18.5273 19.2344 18.6367 19.3125 18.8555C19.3906 19.0742 19.4297 19.1836 19.4297 19.1836H14.0859V19.3008C14.0859 19.9414 13.875 20.4883 13.4531 20.9414C13.0469 21.3789 12.5547 21.5977 11.9766 21.5977C11.3984 21.5977 10.9062 21.3789 10.5 20.9414C10.0938 20.4883 9.89062 19.9414 9.89062 19.3008V19.1836H4.57031L4.82812 18.5039C5.10938 17.7852 5.35156 17.0195 5.55469 16.207C5.77344 15.3789 5.91406 14.2539 5.97656 12.832C6.02344 11.7695 6.13281 10.8164 6.30469 9.97266C6.49219 9.14453 6.73438 8.42578 7.03125 7.81641C7.34375 7.19141 7.71875 6.68359 8.15625 6.29297C8.59375 5.88672 9.10156 5.58984 9.67969 5.40234V4.74609C9.67969 4.10547 9.90625 3.55859 10.3594 3.10547C10.8281 2.63672 11.3828 2.40234 12.0234 2.40234C12.6641 2.40234 13.2109 2.63672 13.6641 3.10547C14.1172 3.55859 14.3438 4.10547 14.3438 4.74609V5.40234C14.9375 5.58984 15.4531 5.87891 15.8906 6.26953C16.3281 6.67578 16.7031 7.18359 17.0156 7.79297C17.3281 8.40234 17.5703 9.12891 17.7422 9.97266C17.9141 10.8164 18.0156 11.7773 18.0469 12.8555C18.1094 14.1055 18.2578 15.207 18.4922 16.1602C18.7422 17.1133 18.9766 17.9023 19.1953 18.5273ZM10.6875 4.74609H10.7109V5.19141C10.8203 5.19141 10.9375 5.19141 11.0625 5.19141C11.1875 5.17578 11.3203 5.16797 11.4609 5.16797H12.6094C12.7344 5.16797 12.8594 5.17578 12.9844 5.19141C13.1094 5.19141 13.2266 5.19141 13.3359 5.19141V4.74609C13.3359 4.38672 13.2031 4.07422 12.9375 3.80859C12.6875 3.54297 12.3828 3.41016 12.0234 3.41016C11.6484 3.41016 11.3281 3.54297 11.0625 3.80859C10.8125 4.07422 10.6875 4.38672 10.6875 4.74609ZM6.02344 18.1758V18.1992H18.0234C17.8047 17.5586 17.5938 16.793 17.3906 15.9023C17.2031 15.0117 17.0859 14.0117 17.0391 12.9023C16.9297 9.91797 16.4062 8.05078 15.4688 7.30078C14.5312 6.53516 13.5703 6.15234 12.5859 6.15234H11.4375C10.4062 6.15234 9.4375 6.53516 8.53125 7.30078C7.625 8.06641 7.10156 9.93359 6.96094 12.9023C6.91406 14.1523 6.79688 15.1914 6.60938 16.0195C6.4375 16.832 6.24219 17.5508 6.02344 18.1758Z" fill="black"/>
</svg>
