<svg width="24" height="24" viewBox="0 0 24 24" fill="none" xmlns="http://www.w3.org/2000/svg">
<g clip-path="url(#clip0_6014_3181)">
<path d="M10.9922 7.6875H19.125V19.125H9.98438H0V0H10.9922V7.6875ZM7.00781 18.1172H9.98438V7.6875V0.984375H1.00781V18.1172H3.98438V14.9766H7.00781V18.1172ZM18.1172 18.1406V8.69531H10.9922V18.1406H18.1172ZM13.9688 11.8828V10.2656H12.375V11.8828H13.9688ZM16.7344 11.8828V10.2656H15.1172V11.8828H16.7344ZM12.375 14.5547H13.9688V12.9375H12.375V14.5547ZM16.7344 14.5547V12.9375H15.1172V14.5547H16.7344ZM2.03906 2.53125V4.03125H3.53906V2.53125H2.03906ZM4.73438 2.53125V4.03125H6.25781V2.53125H4.73438ZM7.42969 2.53125V4.03125H8.92969V2.53125H7.42969ZM2.03906 5.10938V6.60938H3.53906V5.10938H2.03906ZM4.73438 5.10938V6.60938H6.25781V5.10938H4.73438ZM7.42969 5.10938V6.60938H8.92969V5.10938H7.42969ZM2.03906 7.6875V9.1875H3.53906V7.6875H2.03906ZM4.73438 7.6875V9.1875H6.25781V7.6875H4.73438ZM7.42969 7.6875V9.1875H8.92969V7.6875H7.42969ZM2.03906 10.3359V11.8359H3.53906V10.3359H2.03906ZM4.73438 10.3359V11.8359H6.25781V10.3359H4.73438ZM7.42969 10.3359V11.8359H8.92969V10.3359H7.42969Z" fill="black"/>
</g>
<defs>
<clipPath id="clip0_6014_3181">
<rect width="24" height="24" fill="white"/>
</clipPath>
</defs>
</svg>
