<svg width="24" height="24" viewBox="0 0 24 24" fill="none" xmlns="http://www.w3.org/2000/svg">
<path d="M18.0234 12.4453C18.2109 12.4297 18.3984 12.4141 18.5859 12.3984C18.7891 12.3672 18.9688 12.3281 19.125 12.2812V18.4922C19.125 18.7734 19.0234 19.0156 18.8203 19.2188C18.6328 19.4062 18.4062 19.5 18.1406 19.5H3.51562C3.23438 19.5 2.99219 19.4062 2.78906 19.2188C2.60156 19.0156 2.50781 18.7734 2.50781 18.4922V8.88281C2.50781 8.60156 2.60156 8.36719 2.78906 8.17969C2.99219 7.99219 3.23438 7.89062 3.51562 7.875H13.5469C13.5469 7.89062 13.5469 7.90625 13.5469 7.92188C13.5469 7.9375 13.5469 7.95312 13.5469 7.96875C13.5469 8.125 13.5547 8.28125 13.5703 8.4375C13.5859 8.59375 13.6094 8.74219 13.6406 8.88281H3.51562V10.875H14.625C15.0312 11.3594 15.5234 11.7422 16.1016 12.0234C16.6953 12.3047 17.3359 12.4453 18.0234 12.4453ZM3.51562 18.4922H18.1406V13.5703H3.51562V18.4922ZM20.2266 5.29688C20.6172 5.60938 20.9219 6 21.1406 6.46875C21.375 6.92188 21.4922 7.42188 21.4922 7.96875C21.4922 8.92188 21.1484 9.74219 20.4609 10.4297C19.7891 11.1016 18.9766 11.4375 18.0234 11.4375C17.9609 11.4375 17.8984 11.4375 17.8359 11.4375C17.7734 11.4219 17.7188 11.4141 17.6719 11.4141H17.6484C16.7734 11.3203 16.0391 10.9453 15.4453 10.2891C14.8516 9.63281 14.5547 8.85938 14.5547 7.96875C14.5547 7.60938 14.6016 7.26562 14.6953 6.9375C14.8047 6.60938 14.9531 6.30469 15.1406 6.02344C15.25 5.86719 15.3672 5.71875 15.4922 5.57812C15.6328 5.4375 15.7734 5.3125 15.9141 5.20312C16.2109 4.98438 16.5312 4.8125 16.875 4.6875C17.2344 4.5625 17.6172 4.5 18.0234 4.5C18.4453 4.5 18.8438 4.57031 19.2188 4.71094C19.5938 4.85156 19.9297 5.04688 20.2266 5.29688ZM17.25 9.70312L20.2734 7.125L19.6875 6.44531L17.3438 8.4375L16.4531 7.38281L15.75 7.96875L17.25 9.70312Z" fill="black"/>
</svg>
