<svg width="24" height="24" viewBox="0 0 24 24" fill="none" xmlns="http://www.w3.org/2000/svg">
<path d="M21.4922 5.25C21.7734 5.25 22.0078 5.35156 22.1953 5.55469C22.3984 5.74219 22.5 5.97656 22.5 6.25781V17.7422C22.5 18.0234 22.3984 18.2656 22.1953 18.4688C22.0078 18.6562 21.7734 18.75 21.4922 18.75H2.50781C2.22656 18.75 1.98438 18.6562 1.78125 18.4688C1.59375 18.2656 1.5 18.0234 1.5 17.7422V6.25781C1.5 5.97656 1.59375 5.74219 1.78125 5.55469C1.98438 5.35156 2.22656 5.25 2.50781 5.25H21.4922ZM21.4922 6.25781H2.50781V8.74219H21.4922V6.25781ZM2.50781 17.7422H21.4922V11.7422H2.50781V17.7422Z" fill="black"/>
</svg>
