<svg width="24" height="24" viewBox="0 0 24 24" fill="none" xmlns="http://www.w3.org/2000/svg">
<path d="M12.75 14.3438V14.4141C12.75 14.8672 12.6484 15.2109 12.4453 15.4453C12.2578 15.6641 11.9531 15.7734 11.5312 15.7734H11.2031V13.0078H11.5312C11.9531 13.0078 12.2578 13.1172 12.4453 13.3359C12.6484 13.5391 12.75 13.875 12.75 14.3438ZM21.3281 7.28906V21.5156H6.23438V18.5859H2.67188V9.96094H6.23438V2.48438H16.5469L21.3281 7.28906ZM7.14844 15.1875C7.75781 15.1875 8.22656 15.0547 8.55469 14.7891C8.89844 14.5078 9.07031 14.1094 9.07031 13.5938V13.5703C9.07031 13.0391 8.90625 12.6328 8.57812 12.3516C8.25 12.0703 7.75 11.9297 7.07812 11.9297H5.20312V16.8516H6.60938V15.1875H7.14844ZM20.3203 18.5859H7.24219V20.5078H20.3203V18.5859ZM11.5781 16.8516C12.4531 16.8516 13.1094 16.6328 13.5469 16.1953C14 15.7578 14.2266 15.1562 14.2266 14.3906V14.3203C14.2266 13.5547 14.0078 12.9609 13.5703 12.5391C13.1328 12.1172 12.4688 11.9062 11.5781 11.9062H9.79688V16.8516H11.5781ZM16.4297 14.0625V13.0078H18.3516V11.9062H15V16.8516H16.4297V15.0938H17.9531V14.0625H16.4297ZM20.3203 7.99219L15.8672 8.01562L15.8438 3.49219H7.24219V9.96094H20.3203V8.01562V7.99219ZM7.03125 12.9844H6.60938V14.2266H7.00781C7.24219 14.2266 7.41406 14.1719 7.52344 14.0625C7.64844 13.9531 7.71094 13.7969 7.71094 13.5938V13.5703C7.71094 13.3672 7.64844 13.2188 7.52344 13.125C7.41406 13.0312 7.25 12.9844 7.03125 12.9844Z" fill="black"/>
</svg>
