<svg width="24" height="24" viewBox="0 0 24 24" fill="none" xmlns="http://www.w3.org/2000/svg">
<path d="M20.9766 16.8633C21.1484 17.0039 21.2812 17.1758 21.375 17.3789C21.4688 17.5664 21.5156 17.7695 21.5156 17.9883C21.5156 18.2227 21.4688 18.4414 21.375 18.6445C21.2812 18.832 21.1484 18.9883 20.9766 19.1133C20.7266 19.3633 20.4766 19.6055 20.2266 19.8398C19.9922 20.0586 19.7656 20.293 19.5469 20.543C19.2969 20.8398 18.9922 21.0742 18.6328 21.2461C18.2734 21.4023 17.8906 21.4805 17.4844 21.4805C17.4219 21.4805 17.3594 21.4805 17.2969 21.4805C17.25 21.4648 17.1953 21.457 17.1328 21.457H17.1562C16.4375 21.4102 15.75 21.293 15.0938 21.1055C14.4531 20.9023 13.8438 20.6445 13.2656 20.332L13.3125 20.3555C12.625 20.0273 11.9688 19.6602 11.3438 19.2539C10.7188 18.8633 10.1172 18.4492 9.53906 18.0117C8.97656 17.5586 8.42969 17.082 7.89844 16.582C7.38281 16.082 6.89844 15.5586 6.44531 15.0117L6.39844 14.9883C5.71094 14.1914 5.08594 13.332 4.52344 12.4102C3.97656 11.4883 3.5 10.5273 3.09375 9.52734L3.04688 9.38672C2.875 8.96484 2.73438 8.51953 2.625 8.05078C2.53125 7.56641 2.48438 7.06641 2.48438 6.55078C2.48438 6.50391 2.48438 6.45703 2.48438 6.41016C2.48438 6.36328 2.48438 6.31641 2.48438 6.26953V6.29297C2.5 5.94922 2.57812 5.62891 2.71875 5.33203C2.85938 5.03516 3.04688 4.78516 3.28125 4.58203C3.54688 4.33203 3.80469 4.08203 4.05469 3.83203C4.32031 3.56641 4.57812 3.29297 4.82812 3.01172C4.96875 2.85547 5.13281 2.73828 5.32031 2.66016C5.52344 2.56641 5.73438 2.51953 5.95312 2.51953C6.17188 2.51953 6.375 2.56641 6.5625 2.66016C6.76562 2.73828 6.9375 2.85547 7.07812 3.01172L8.32031 4.27734C8.52344 4.48047 8.72656 4.68359 8.92969 4.88672C9.14844 5.08984 9.35938 5.29297 9.5625 5.49609C9.71875 5.63672 9.84375 5.80859 9.9375 6.01172C10.0312 6.19922 10.0781 6.41016 10.0781 6.64453C10.0781 6.87891 10.0312 7.09766 9.9375 7.30078C9.84375 7.48828 9.71875 7.65234 9.5625 7.79297L8.01562 9.31641C7.98438 9.34766 7.95312 9.38672 7.92188 9.43359C7.90625 9.46484 7.89844 9.50391 7.89844 9.55078C7.89844 9.58203 7.89844 9.61328 7.89844 9.64453C7.91406 9.67578 7.92969 9.69922 7.94531 9.71484C8.13281 10.1367 8.34375 10.5352 8.57812 10.9102C8.8125 11.2852 9.07031 11.6367 9.35156 11.9648L9.32812 11.9414C9.875 12.6289 10.4688 13.2695 11.1094 13.8633C11.7656 14.4414 12.4531 14.9727 13.1719 15.457L13.2422 15.4805C13.3984 15.5898 13.5625 15.6836 13.7344 15.7617C13.9062 15.8398 14.0703 15.918 14.2266 15.9961C14.2578 16.0117 14.2891 16.0273 14.3203 16.043C14.3516 16.043 14.3828 16.043 14.4141 16.043C14.4609 16.043 14.5078 16.0352 14.5547 16.0195C14.6016 15.9883 14.6328 15.957 14.6484 15.9258V15.9023C14.8984 15.6523 15.1562 15.4023 15.4219 15.1523C15.6875 14.8867 15.9531 14.6211 16.2188 14.3555C16.3594 14.1992 16.5234 14.082 16.7109 14.0039C16.8984 13.9102 17.1016 13.8633 17.3203 13.8633C17.5547 13.8633 17.7656 13.9102 17.9531 14.0039C18.1406 14.082 18.3047 14.1992 18.4453 14.3555C18.8672 14.7773 19.2891 15.1992 19.7109 15.6211C20.1328 16.043 20.5547 16.457 20.9766 16.8633Z" fill="black"/>
</svg>
