<svg width="24" height="24" viewBox="0 0 24 24" fill="none" xmlns="http://www.w3.org/2000/svg">
<path d="M20.4492 4.61719H20.9648V5.10938C20.9648 6.25 20.9258 7.30469 20.8477 8.27344C20.7852 9.24219 20.6914 10.1484 20.5664 10.9922C20.4414 11.8203 20.2852 12.5859 20.0977 13.2891C19.9102 13.9922 19.6992 14.6484 19.4648 15.2578L19.4414 15.3281C19.0508 16.3281 18.5352 17.25 17.8945 18.0938C17.2539 18.9375 16.5039 19.6875 15.6445 20.3438L15.7148 20.2969C15.2305 20.6562 14.7227 21 14.1914 21.3281C13.6758 21.6562 13.1133 21.9766 12.5039 22.2891C12.4414 22.3203 12.3711 22.3516 12.293 22.3828C12.2305 22.4141 12.1992 22.4297 12.1992 22.4297L11.9883 22.5234L11.7773 22.4297C11.7617 22.4297 11.7148 22.4141 11.6367 22.3828C11.5742 22.3516 11.5195 22.3203 11.4727 22.2891L11.332 22.2188C10.7852 21.9531 10.2461 21.6641 9.71484 21.3516C9.19922 21.0234 8.71484 20.6875 8.26172 20.3438L8.21484 20.3203C7.69922 19.9141 7.21484 19.4688 6.76172 18.9844C6.30859 18.4844 5.90234 17.9453 5.54297 17.3672C5.15234 16.7422 4.80078 16.0391 4.48828 15.2578C4.17578 14.4609 3.91016 13.5703 3.69141 12.5859C3.48828 11.5859 3.32422 10.4688 3.19922 9.23438C3.08984 8.01562 3.03516 6.64844 3.03516 5.13281V4.64062H3.52734C3.57422 4.64062 3.62891 4.64062 3.69141 4.64062C3.75391 4.64062 3.81641 4.64062 3.87891 4.64062C4.64453 4.64062 5.37891 4.57812 6.08203 4.45312C6.80078 4.32812 7.48047 4.14062 8.12109 3.89062L8.19141 3.86719C8.83203 3.60156 9.44141 3.28906 10.0195 2.92969C10.6133 2.55469 11.168 2.14844 11.6836 1.71094L11.9883 1.47656L12.3164 1.71094H12.293C12.8086 2.14844 13.3555 2.55469 13.9336 2.92969C14.5273 3.28906 15.168 3.60938 15.8555 3.89062L15.7617 3.86719C16.4336 4.10156 17.1289 4.28906 17.8477 4.42969C18.582 4.55469 19.3242 4.61719 20.0742 4.61719C20.1367 4.61719 20.1992 4.61719 20.2617 4.61719C20.3398 4.61719 20.4023 4.61719 20.4492 4.61719ZM12.0352 21.3984L12.1523 21.3516C12.668 21.0703 13.168 20.7812 13.6523 20.4844C14.1523 20.1719 14.6211 19.8594 15.0586 19.5469L15.082 19.5234C15.5508 19.1641 15.9883 18.7578 16.3945 18.3047C16.8164 17.8516 17.1992 17.3594 17.543 16.8281C17.8867 16.2812 18.207 15.6562 18.5039 14.9531C18.7852 14.2344 19.0273 13.4219 19.2305 12.5156C19.4492 11.5938 19.6211 10.5625 19.7461 9.42188C19.8711 8.28125 19.9414 7.00781 19.957 5.60156C19.1445 5.60156 18.3633 5.53906 17.6133 5.41406C16.8633 5.27344 16.1602 5.07812 15.5039 4.82812L15.4102 4.78125C14.7852 4.53125 14.1836 4.23438 13.6055 3.89062C13.0273 3.53125 12.4883 3.14844 11.9883 2.74219L12.0117 2.71875C11.4961 3.14062 10.9414 3.53125 10.3477 3.89062C9.76953 4.23438 9.14453 4.54688 8.47266 4.82812L8.56641 4.80469C7.86328 5.07031 7.12891 5.27344 6.36328 5.41406C5.61328 5.55469 4.83984 5.625 4.04297 5.625C4.04297 6.67188 4.08203 7.64062 4.16016 8.53125C4.22266 9.4375 4.30859 10.2734 4.41797 11.0391C4.54297 11.7891 4.69141 12.4844 4.86328 13.125C5.01953 13.7656 5.20703 14.3516 5.42578 14.8828L5.44922 14.9531C5.77734 15.875 6.23047 16.7266 6.80859 17.5078C7.40234 18.2734 8.08203 18.9531 8.84766 19.5469L8.80078 19.5C9.26953 19.8438 9.76172 20.1719 10.2773 20.4844C10.793 20.7969 11.3477 21.1016 11.9414 21.3984C11.9414 21.3984 11.9414 21.4062 11.9414 21.4219C11.957 21.4219 11.9727 21.4219 11.9883 21.4219C12.0039 21.4062 12.0195 21.3984 12.0352 21.3984ZM5.02734 6.5625C5.69922 6.54688 6.34766 6.47656 6.97266 6.35156C7.59766 6.22656 8.19922 6.05469 8.77734 5.83594C9.37109 5.60156 9.94141 5.32812 10.4883 5.01562C11.0195 4.70312 11.5195 4.35156 11.9883 3.96094L11.9648 3.9375C12.4492 4.34375 12.957 4.70312 13.4883 5.01562C14.0352 5.32812 14.5977 5.59375 15.1758 5.8125C15.7695 6.03125 16.3867 6.20312 17.0273 6.32812C17.6523 6.45312 18.3008 6.52344 18.9727 6.53906C18.8945 8.88281 18.668 10.8203 18.293 12.3516C17.9023 13.8828 17.4023 15.1484 16.793 16.1484C16.1992 17.1328 15.5117 17.9219 14.7305 18.5156C13.9336 19.125 13.0977 19.6641 12.2227 20.1328C12.1914 20.1484 12.1445 20.1719 12.082 20.2031C12.0195 20.2344 11.9883 20.25 11.9883 20.25C11.9883 20.25 11.957 20.2344 11.8945 20.2031C11.832 20.1719 11.7852 20.1484 11.7539 20.1328C10.832 19.6641 9.98047 19.1328 9.19922 18.5391C8.40234 17.9609 7.70703 17.1797 7.11328 16.1953C6.51953 15.1953 6.04297 13.9297 5.68359 12.3984C5.30859 10.8828 5.08984 8.9375 5.02734 6.5625ZM14.332 9.89062C14.332 9.23438 14.1055 8.67969 13.6523 8.22656C13.1992 7.77344 12.6445 7.54688 11.9883 7.54688C11.3477 7.54688 10.8008 7.77344 10.3477 8.22656C9.89453 8.67969 9.66797 9.23438 9.66797 9.89062V11.1094H9.12891V15.2109H14.8711V11.1094H14.332V9.89062ZM13.3242 11.1094V9.89062C13.3242 9.51562 13.1914 9.20312 12.9258 8.95312C12.6758 8.6875 12.3633 8.55469 11.9883 8.55469C11.6289 8.55469 11.3164 8.6875 11.0508 8.95312C10.7852 9.20312 10.6523 9.51562 10.6523 9.89062V11.1094H13.3242Z" fill="black"/>
</svg>
