<svg width="24" height="24" viewBox="0 0 24 24" fill="none" xmlns="http://www.w3.org/2000/svg">
<path d="M6.34875 9.30435C6.61447 9.30435 6.84223 9.39946 7.03203 9.58967C7.22183 9.76087 7.31673 9.97962 7.31673 10.2459C7.31673 10.5122 7.22183 10.7405 7.03203 10.9307C6.84223 11.1209 6.61447 11.216 6.34875 11.216C6.08304 11.216 5.85528 11.1209 5.66548 10.9307C5.47568 10.7405 5.38078 10.5122 5.38078 10.2459C5.38078 9.97962 5.47568 9.76087 5.66548 9.58967C5.85528 9.39946 6.08304 9.30435 6.34875 9.30435ZM13.7794 6.42255C13.9692 6.25136 14.121 6.05163 14.2349 5.82337C14.3677 5.57609 14.4342 5.30978 14.4342 5.02446C14.4342 4.52989 14.2539 4.11141 13.8932 3.76902C13.5326 3.40761 13.1056 3.2269 12.6121 3.2269C12.1186 3.2269 11.6916 3.40761 11.331 3.76902C10.9703 4.11141 10.79 4.52989 10.79 5.02446C10.79 5.30978 10.847 5.57609 10.9609 5.82337C11.0747 6.05163 11.2266 6.25136 11.4164 6.42255C11.5872 6.40353 11.7675 6.39402 11.9573 6.39402C12.1661 6.375 12.3654 6.36549 12.5552 6.36549C12.7639 6.36549 12.9727 6.375 13.1815 6.39402C13.4093 6.39402 13.6275 6.40353 13.8363 6.42255H13.7794ZM24 10.9592C24 11.9293 23.8102 12.5761 23.4306 12.8995C23.051 13.2038 22.4721 13.375 21.694 13.413C21.656 14.0217 21.5421 14.6019 21.3523 15.1535C21.1625 15.7052 20.9253 16.2188 20.6406 16.6943L20.669 16.6658C20.3274 17.1984 19.9478 17.6834 19.5302 18.1209C19.1127 18.5584 18.6477 18.9484 18.1352 19.2908L18.1068 19.3193V23H14.8043L13.637 21.0312C13.3903 21.0693 13.1246 21.1073 12.8399 21.1454C12.5552 21.1644 12.261 21.1739 11.9573 21.1739C11.6536 21.1739 11.3594 21.1644 11.0747 21.1454C10.79 21.1073 10.5053 21.0693 10.2206 21.0312H10.2776L9.11032 23H5.80783V19.3193C5.14353 18.8628 4.55516 18.3397 4.0427 17.75C3.54923 17.1413 3.14116 16.4851 2.81851 15.7812L2.79004 15.7242H2.61922H0.854093L0 14.8682V10.731L0.911032 9.93207H2.79004C2.97983 9.47554 3.20759 9.05707 3.47331 8.67663C3.73903 8.27717 4.03321 7.90625 4.35587 7.56386V7.59239V3.74049H5.06762C5.67497 3.74049 6.23488 3.85462 6.74733 4.08288C7.27877 4.31114 7.74377 4.625 8.14235 5.02446C8.16133 5.04348 8.17082 5.0625 8.17082 5.08152C8.1898 5.08152 8.20878 5.09103 8.22776 5.11005C8.3796 5.07201 8.56939 5.02446 8.79715 4.96739C9.04389 4.91033 9.3191 4.85326 9.62278 4.7962C9.67972 4.0163 9.99288 3.36005 10.5623 2.82745C11.1507 2.27582 11.8339 2 12.6121 2C13.4472 2 14.159 2.29484 14.7473 2.88451C15.3357 3.47418 15.6299 4.1875 15.6299 5.02446C15.6299 5.02446 15.6299 5.03397 15.6299 5.05299C15.6299 5.05299 15.6299 5.0625 15.6299 5.08152C15.6299 5.08152 15.6299 5.09103 15.6299 5.11005C16.5789 5.43342 17.4235 5.87092 18.1637 6.42255C18.8849 6.97418 19.4923 7.57337 19.9858 8.22011C20.4982 8.86685 20.8968 9.53261 21.1815 10.2174C21.4662 10.9212 21.637 11.5774 21.694 12.1861C22.2444 12.1861 22.567 12.1101 22.6619 11.9579C22.7568 11.8057 22.8043 11.4728 22.8043 10.9592H24ZM20.5267 13.1277L20.4982 12.4429C20.4413 11.3967 19.9858 10.2649 19.1317 9.04755C18.2776 7.81114 17.0249 6.8981 15.3737 6.30842C15.3357 6.36549 15.2977 6.42255 15.2598 6.47962C15.2408 6.53668 15.2123 6.59375 15.1744 6.65082V6.62228C15.4591 6.69837 15.7438 6.77446 16.0285 6.85054L15.6584 8.02038C15.4496 7.94429 15.2123 7.87772 14.9466 7.82065C14.6809 7.76359 14.4152 7.71603 14.1495 7.67799H14.0925C13.8648 7.63995 13.618 7.61141 13.3523 7.59239C13.0866 7.57337 12.8209 7.56386 12.5552 7.56386C12.3084 7.56386 12.0522 7.57337 11.7865 7.59239C11.5397 7.61141 11.293 7.63995 11.0463 7.67799H11.1032C10.8185 7.71603 10.5338 7.76359 10.2491 7.82065C9.98339 7.87772 9.72716 7.94429 9.48043 8.02038L9.53737 7.99185L9.19573 6.82201C9.48043 6.74592 9.76512 6.67935 10.0498 6.62228C9.99288 6.52717 9.93594 6.43207 9.879 6.33696C9.84104 6.24185 9.80308 6.13723 9.76512 6.0231V5.99457C9.36655 6.08967 9.0344 6.17527 8.76868 6.25136C8.52195 6.30842 8.39858 6.33696 8.39858 6.33696L7.85765 6.56522L7.45907 6.08016C7.42111 6.04212 7.39265 6.01359 7.37367 5.99457C7.35469 5.95652 7.32622 5.91848 7.28826 5.88043C7.0605 5.65217 6.80427 5.46196 6.51957 5.30978C6.23488 5.15761 5.92171 5.05299 5.58007 4.99592V8.07745L5.32384 8.33424C5.00119 8.63859 4.71649 8.98098 4.46975 9.36141C4.22301 9.74185 4.01423 10.1413 3.84342 10.5598L3.81495 10.5883L3.61566 11.1304H1.36655L1.2242 11.2731V14.3832L1.33808 14.4973H4.18505V15.7242H4.15658C4.46026 16.2758 4.81139 16.7799 5.20996 17.2364C5.62752 17.6739 6.09253 18.0543 6.60498 18.3777L6.63345 18.4062L7.00356 18.663V21.7731H8.42705L9.02491 20.7459C8.91103 20.6889 8.79715 20.6413 8.68327 20.6033C8.58838 20.5652 8.48399 20.5177 8.37011 20.4606H8.39858L8.96797 19.4049C9.11981 19.481 9.28114 19.5476 9.45196 19.6046C9.62278 19.6617 9.80308 19.7092 9.99288 19.7473H10.0214L10.2491 19.8043C10.5148 19.8424 10.79 19.8804 11.0747 19.9185C11.3594 19.9375 11.6536 19.947 11.9573 19.947C12.261 19.947 12.5552 19.9375 12.8399 19.9185C13.1435 19.8804 13.4377 19.8329 13.7224 19.7758L13.6655 19.8043L14.0071 19.7188C14.1969 19.6807 14.3772 19.6332 14.548 19.5761C14.7189 19.519 14.8802 19.4524 15.032 19.3764H15.0036L15.573 20.4606C15.4781 20.5177 15.3737 20.5747 15.2598 20.6318C15.1459 20.6698 15.032 20.7079 14.9181 20.7459H14.8897L15.516 21.7731H16.911V18.663L17.2811 18.4062C17.7556 18.1019 18.1827 17.75 18.5623 17.3505C18.9609 16.9511 19.3025 16.5231 19.5872 16.0666L19.6157 16.038C19.8814 15.6196 20.0902 15.1726 20.242 14.697C20.3938 14.2024 20.4887 13.6793 20.5267 13.1277Z" fill="black"/>
</svg>
