<svg width="24" height="24" viewBox="0 0 24 24" fill="none" xmlns="http://www.w3.org/2000/svg">
<path d="M21.5742 20.1562L20.168 21.5859L15.457 16.8516H15.4805C14.793 17.3828 14.0273 17.8047 13.1836 18.1172C12.3398 18.4141 11.4492 18.5625 10.5117 18.5625C9.38672 18.5625 8.33984 18.3516 7.37109 17.9297C6.38672 17.5078 5.52734 16.9297 4.79297 16.1953C4.05859 15.4609 3.48047 14.6016 3.05859 13.6172C2.63672 12.6484 2.42578 11.6016 2.42578 10.4766C2.42578 9.36719 2.63672 8.32031 3.05859 7.33594C3.48047 6.36719 4.05859 5.51562 4.79297 4.78125C5.52734 4.04688 6.38672 3.46875 7.37109 3.04688C8.33984 2.625 9.38672 2.41406 10.5117 2.41406C11.6211 2.41406 12.668 2.625 13.6523 3.04688C14.6211 3.46875 15.4727 4.04688 16.207 4.78125C16.9414 5.51562 17.5195 6.36719 17.9414 7.33594C18.3633 8.32031 18.5742 9.36719 18.5742 10.4766C18.5742 11.4141 18.418 12.3125 18.1055 13.1719C17.8086 14.0156 17.3945 14.7734 16.8633 15.4453L21.5742 20.1562ZM10.5117 16.5469C11.3398 16.5469 12.1211 16.3906 12.8555 16.0781C13.5742 15.75 14.207 15.3203 14.7539 14.7891C15.3008 14.2422 15.7305 13.6016 16.043 12.8672C16.3555 12.1484 16.5117 11.375 16.5117 10.5469C16.5117 9.71875 16.3555 8.9375 16.043 8.20312C15.7305 7.48438 15.3008 6.85156 14.7539 6.30469C14.2227 5.75781 13.5898 5.32812 12.8555 5.01562C12.1211 4.70312 11.3398 4.54688 10.5117 4.54688C9.68359 4.54688 8.91016 4.70312 8.19141 5.01562C7.45703 5.32812 6.81641 5.75781 6.26953 6.30469C5.73828 6.85156 5.30859 7.48438 4.98047 8.20312C4.66797 8.9375 4.51172 9.71875 4.51172 10.5469C4.51172 11.375 4.66797 12.1562 4.98047 12.8906C5.30859 13.6094 5.73828 14.2422 6.26953 14.7891C6.81641 15.3359 7.45703 15.7656 8.19141 16.0781C8.91016 16.3906 9.68359 16.5469 10.5117 16.5469Z" fill="black"/>
</svg>
