<svg width="24" height="24" viewBox="0 0 24 24" fill="none" xmlns="http://www.w3.org/2000/svg">
<path d="M20.4492 4.61719H20.9648V5.10938C20.9648 8.26562 20.707 10.8359 20.1914 12.8203C19.6914 14.8047 19.0352 16.4062 18.2227 17.625C17.4102 18.8438 16.5039 19.7891 15.5039 20.4609C14.4883 21.1328 13.4883 21.7422 12.5039 22.2891C12.457 22.3047 12.3945 22.3359 12.3164 22.3828C12.2383 22.4141 12.1992 22.4297 12.1992 22.4297L11.9883 22.5469L11.7773 22.4297C11.7773 22.4297 11.7383 22.4141 11.6602 22.3828C11.582 22.3516 11.5195 22.3203 11.4727 22.2891C10.2383 21.6484 9.10547 20.9453 8.07422 20.1797C7.04297 19.4141 6.15234 18.4141 5.40234 17.1797C4.65234 15.9297 4.07422 14.3516 3.66797 12.4453C3.24609 10.5234 3.03516 8.08594 3.03516 5.13281V4.64062H3.52734C4.48047 4.64062 5.33203 4.57812 6.08203 4.45312C6.81641 4.32812 7.50391 4.14062 8.14453 3.89062C8.78516 3.64062 9.38672 3.33594 9.94922 2.97656C10.5117 2.61719 11.0898 2.19531 11.6836 1.71094L11.9883 1.45312L12.3164 1.71094C12.9102 2.19531 13.4883 2.61719 14.0508 2.97656C14.6133 3.33594 15.207 3.64062 15.832 3.89062C16.457 4.125 17.1445 4.30469 17.8945 4.42969C18.6445 4.55469 19.4961 4.61719 20.4492 4.61719ZM12.0352 21.3984C12.9883 20.8828 13.9336 20.3125 14.8711 19.6875C15.8086 19.0625 16.6445 18.1953 17.3789 17.0859C18.1289 15.9609 18.7383 14.4844 19.207 12.6562C19.6758 10.8438 19.9258 8.49219 19.957 5.60156C19.9258 5.60156 19.8867 5.60156 19.8398 5.60156C19.8086 5.60156 19.7773 5.60156 19.7461 5.60156C19.0117 5.60156 18.2852 5.53906 17.5664 5.41406C16.8633 5.27344 16.1836 5.08594 15.5273 4.85156C14.8711 4.60156 14.2461 4.29688 13.6523 3.9375C13.0586 3.59375 12.5039 3.19531 11.9883 2.74219H12.0117C11.4805 3.17969 10.9102 3.57812 10.3008 3.9375C9.70703 4.29688 9.07422 4.60156 8.40234 4.85156C7.74609 5.10156 7.05859 5.29688 6.33984 5.4375C5.62109 5.5625 4.88672 5.625 4.13672 5.625C4.12109 5.625 4.10547 5.625 4.08984 5.625C4.07422 5.625 4.05859 5.625 4.04297 5.625C4.05859 8.54688 4.30078 10.9219 4.76953 12.75C5.23828 14.5625 5.83984 16.0312 6.57422 17.1562C7.32422 18.2656 8.16797 19.125 9.10547 19.7344C10.0273 20.3438 10.9727 20.8984 11.9414 21.3984C11.9414 21.3984 11.9414 21.4062 11.9414 21.4219C11.957 21.4219 11.9727 21.4219 11.9883 21.4219C12.0039 21.4062 12.0195 21.3984 12.0352 21.3984ZM11.9648 7.71094C11.1992 7.71094 10.668 7.95312 10.3711 8.4375C10.0742 8.92188 9.92578 9.45312 9.92578 10.0312C9.92578 10.5938 10.0742 11.125 10.3711 11.625C10.6836 12.125 11.2148 12.375 11.9648 12.375C12.6992 12.375 13.2227 12.125 13.5352 11.625C13.8633 11.125 14.0273 10.5938 14.0273 10.0312C14.0273 9.45312 13.8867 8.92188 13.6055 8.4375C13.3242 7.95312 12.7773 7.71094 11.9648 7.71094ZM13.418 13.2188H13.4414C13.3008 13.1719 13.1523 13.1328 12.9961 13.1016C12.8555 13.0703 12.707 13.0547 12.5508 13.0547H11.4258C11.2695 13.0547 11.1211 13.0703 10.9805 13.1016C10.8398 13.1172 10.707 13.1484 10.582 13.1953L8.30859 14.0859C8.13672 14.1484 7.99609 14.2578 7.88672 14.4141C7.79297 14.5703 7.74609 14.7422 7.74609 14.9297V16.4062H16.2539V14.9297C16.2539 14.7266 16.1992 14.5547 16.0898 14.4141C15.9805 14.2578 15.8398 14.1484 15.668 14.0859L13.418 13.2188Z" fill="black"/>
</svg>
