<svg width="24" height="24" viewBox="0 0 24 24" fill="none" xmlns="http://www.w3.org/2000/svg">
<path d="M18.5039 15.5039C19.332 15.5039 20.0352 15.8008 20.6133 16.3945C21.207 16.9727 21.5039 17.6758 21.5039 18.5039C21.5039 19.332 21.207 20.043 20.6133 20.6367C20.0352 21.2148 19.332 21.5039 18.5039 21.5039C17.6758 21.5039 16.9648 21.2148 16.3711 20.6367C15.793 20.043 15.5039 19.332 15.5039 18.5039C15.5039 18.3633 15.5117 18.2227 15.5273 18.082C15.5586 17.9414 15.5898 17.8086 15.6211 17.6836L7.74609 14.0039H7.72266C7.45703 14.3164 7.12891 14.5664 6.73828 14.7539C6.36328 14.9258 5.94922 15.0117 5.49609 15.0117C4.66797 15.0117 3.95703 14.7227 3.36328 14.1445C2.78516 13.5508 2.49609 12.8398 2.49609 12.0117C2.49609 11.1836 2.78516 10.4805 3.36328 9.90234C3.95703 9.30859 4.66797 9.01172 5.49609 9.01172C5.94922 9.01172 6.36328 9.10547 6.73828 9.29297C7.12891 9.46484 7.46484 9.70703 7.74609 10.0195L15.6211 6.33984V6.36328C15.5742 6.22266 15.543 6.08203 15.5273 5.94141C15.5117 5.80078 15.5039 5.66016 15.5039 5.51953C15.5039 5.50391 15.5039 5.49609 15.5039 5.49609C15.5039 4.66797 15.793 3.96484 16.3711 3.38672C16.9648 2.79297 17.6758 2.49609 18.5039 2.49609C19.332 2.49609 20.0352 2.79297 20.6133 3.38672C21.207 3.96484 21.5039 4.66797 21.5039 5.49609C21.5039 6.32422 21.207 7.03516 20.6133 7.62891C20.0352 8.20703 19.332 8.49609 18.5039 8.49609C18.0039 8.49609 17.5352 8.38672 17.0977 8.16797C16.6758 7.93359 16.3242 7.62109 16.043 7.23047L8.26172 10.8633C8.33984 11.0352 8.39453 11.2227 8.42578 11.4258C8.47266 11.6133 8.49609 11.8086 8.49609 12.0117C8.49609 12.2148 8.47266 12.418 8.42578 12.6211C8.39453 12.8086 8.33984 12.9883 8.26172 13.1602L16.043 16.793V16.7695C16.3242 16.3945 16.6758 16.0898 17.0977 15.8555C17.5195 15.6211 17.9883 15.5039 18.5039 15.5039Z" fill="black"/>
</svg>
