<svg width="24" height="24" viewBox="0 0 24 24" fill="none" xmlns="http://www.w3.org/2000/svg">
<path d="M15.4922 6.53906H18.9844V21.4453H5.01562V6.53906H8.50781V6.04688C8.50781 5.07812 8.84375 4.25781 9.51562 3.58594C10.2031 2.89844 11.0312 2.55469 12 2.55469C12.9688 2.55469 13.7891 2.89844 14.4609 3.58594C15.1484 4.25781 15.4922 5.07812 15.4922 6.04688V6.53906ZM9.49219 6.04688V6.53906H14.5078V6.04688C14.5078 5.35938 14.2578 4.77344 13.7578 4.28906C13.2734 3.78906 12.6875 3.53906 12 3.53906C11.3125 3.53906 10.7188 3.78906 10.2188 4.28906C9.73438 4.77344 9.49219 5.35938 9.49219 6.04688ZM18 16.2422V7.54688H15.4922V10.8516H14.5078V7.54688H9.49219V10.8516H8.50781V7.54688H6.02344V16.2422H18Z" fill="black"/>
</svg>
