<svg width="16" height="16" viewBox="0 0 16 16" fill="none" xmlns="http://www.w3.org/2000/svg">
<path d="M11.8336 7.39259H13V14H4V7.39259H5.1664V5.43704C5.1664 4.96296 5.2528 4.51358 5.4256 4.08889C5.608 3.67407 5.848 3.31358 6.1456 3.00741C6.4432 2.70123 6.7936 2.45432 7.1968 2.26667C7.6096 2.08889 8.0464 2 8.5072 2C8.9584 2 9.3904 2.08889 9.8032 2.26667C10.2064 2.45432 10.5568 2.70123 10.8544 3.00741C11.1616 3.31358 11.4016 3.67407 11.5744 4.08889C11.7472 4.51358 11.8336 4.96296 11.8336 5.43704V7.39259ZM8.5072 11.7185C8.7664 11.7185 8.9872 11.6247 9.1696 11.437C9.3616 11.2395 9.4576 11.0025 9.4576 10.7259C9.4576 10.4593 9.3616 10.2321 9.1696 10.0444C8.9872 9.84691 8.7664 9.74815 8.5072 9.74815C8.2384 9.74815 8.008 9.84691 7.816 10.0444C7.6336 10.2321 7.5424 10.4593 7.5424 10.7259C7.5424 11.0025 7.6336 11.2395 7.816 11.437C8.008 11.6247 8.2384 11.7185 8.5072 11.7185ZM10.912 7.39259V5.43704C10.912 4.74568 10.6768 4.15802 10.2064 3.67407C9.736 3.19012 9.1696 2.94815 8.5072 2.94815C7.8352 2.94815 7.264 3.19012 6.7936 3.67407C6.3232 4.15802 6.088 4.74568 6.088 5.43704V7.39259H10.912Z" fill="black"/>
</svg>
