<svg width="24" height="24" viewBox="0 0 24 24" fill="none" xmlns="http://www.w3.org/2000/svg">
<path d="M15.8555 18.2812H10.207V8.13281H13.043V16.5H15.7852C16.7383 16.5 17.418 16.1406 17.8242 15.4219C18.2461 14.7031 18.457 13.5078 18.457 11.8359C18.457 10.1641 18.2227 9.02344 17.7539 8.41406C17.3008 7.80469 16.5977 7.5 15.6445 7.5H9.38672V18.3516H6.59766V7.42969H2.49609V5.64844H16.4883C17.3477 5.64844 18.0898 5.75781 18.7148 5.97656C19.3398 6.21094 19.8555 6.57812 20.2617 7.07812C20.6836 7.5625 20.9961 8.19531 21.1992 8.97656C21.4023 9.75781 21.5039 10.6953 21.5039 11.7891C21.5039 13.2266 21.3555 14.375 21.0586 15.2344C20.7773 16.0938 20.3867 16.75 19.8867 17.2031C19.3867 17.6562 18.793 17.9531 18.1055 18.0938C17.418 18.2188 16.668 18.2812 15.8555 18.2812Z" fill="black"/>
</svg>
