<svg width="24" height="24" viewBox="0 0 24 24" fill="none" xmlns="http://www.w3.org/2000/svg">
<path d="M2.50781 3.51562H21.4922V20.4844H2.50781V3.51562ZM14.9766 16.8281C16.2422 16.8281 17.2969 16.5469 18.1406 15.9844C18.9844 15.4219 19.4062 14.0078 19.4062 11.7422C19.4062 10.0234 19.0859 8.78906 18.4453 8.03906C17.8047 7.28906 16.8203 6.91406 15.4922 6.91406H4.5V8.34375H7.73438V16.8281H9.9375V8.34375H14.8125C15.5625 8.34375 16.1172 8.58594 16.4766 9.07031C16.8359 9.53906 17.0156 10.4297 17.0156 11.7422C17.0156 13.0703 16.8438 14.0156 16.5 14.5781C16.1719 15.125 15.6406 15.3984 14.9062 15.3984H12.7734V8.85938H10.5469V16.8281H14.9766Z" fill="black"/>
</svg>
