<svg width="24" height="24" viewBox="0 0 24 24" fill="none" xmlns="http://www.w3.org/2000/svg">
<path d="M12 2.71875C13.3125 2.71875 14.5469 2.92969 15.7031 3.35156C16.8438 3.75781 17.8438 4.3125 18.7031 5.01562C19.5625 5.71875 20.2422 6.53906 20.7422 7.47656C21.2422 8.42969 21.4922 9.4375 21.4922 10.5C21.4922 11.5781 21.2422 12.5938 20.7422 13.5469C20.2422 14.4844 19.5625 15.3047 18.7031 16.0078C17.8438 16.7109 16.8438 17.2656 15.7031 17.6719C14.5469 18.0781 13.3125 18.2812 12 18.2812C11.6719 18.2812 11.3516 18.2734 11.0391 18.2578C10.7422 18.2266 10.4531 18.1875 10.1719 18.1406L5.85938 21.2812V16.4297C4.82812 15.7266 4.00781 14.8594 3.39844 13.8281C2.80469 12.7969 2.50781 11.6875 2.50781 10.5C2.50781 9.4375 2.75781 8.42969 3.25781 7.47656C3.75781 6.53906 4.4375 5.71875 5.29688 5.01562C6.15625 4.3125 7.15625 3.75781 8.29688 3.35156C9.45312 2.92969 10.6875 2.71875 12 2.71875ZM14.2969 14.1797C15.25 14.1797 16.0391 13.9688 16.6641 13.5469C17.3047 13.125 17.6328 12.125 17.6484 10.5469C17.6484 9.3125 17.3984 8.42969 16.8984 7.89844C16.4141 7.36719 15.6719 7.10156 14.6719 7.10156H6.32812V8.08594H8.76562V14.1797H10.4531V8.20312H14.1562C14.7656 8.20312 15.2031 8.39062 15.4688 8.76562C15.7344 9.125 15.8672 9.75 15.8672 10.6406C15.8672 11.5312 15.7422 12.1797 15.4922 12.5859C15.2422 12.9922 14.8281 13.1953 14.25 13.1953H12.6328V8.46094H10.9219V14.1797H14.2969Z" fill="black"/>
</svg>
