<svg width="24" height="24" viewBox="0 0 24 24" fill="none" xmlns="http://www.w3.org/2000/svg">
<path d="M12.8789 11.6953L17.4492 14.2031L16.6055 15.7266L11.1211 12.7266V4.6875H12.8789V11.6953ZM22.3711 12C22.3711 13.4375 22.1055 14.7812 21.5742 16.0312C21.0273 17.2969 20.2852 18.3984 19.3477 19.3359C18.4102 20.2734 17.3086 21.0156 16.043 21.5625C14.7773 22.1094 13.4336 22.3828 12.0117 22.3828C10.5742 22.3828 9.22266 22.1094 7.95703 21.5625C6.70703 21.0156 5.61328 20.2734 4.67578 19.3359C3.73828 18.3984 2.99609 17.2969 2.44922 16.0312C1.90234 14.7812 1.62891 13.4375 1.62891 12C1.62891 10.5625 1.90234 9.21875 2.44922 7.96875C2.99609 6.70312 3.73828 5.60156 4.67578 4.66406C5.61328 3.72656 6.70703 2.98438 7.95703 2.4375C9.22266 1.89062 10.5742 1.61719 12.0117 1.61719C13.4336 1.61719 14.7773 1.89062 16.043 2.4375C17.3086 2.98438 18.4102 3.72656 19.3477 4.66406C20.2852 5.60156 21.0273 6.70312 21.5742 7.96875C22.1055 9.21875 22.3711 10.5625 22.3711 12ZM20.6367 12C20.6367 10.8125 20.4102 9.69531 19.957 8.64844C19.5039 7.60156 18.8867 6.6875 18.1055 5.90625C17.3242 5.125 16.4102 4.50781 15.3633 4.05469C14.3164 3.60156 13.1992 3.375 12.0117 3.375C10.8086 3.375 9.68359 3.60156 8.63672 4.05469C7.58984 4.50781 6.67578 5.125 5.89453 5.90625C5.11328 6.6875 4.49609 7.60156 4.04297 8.64844C3.60547 9.69531 3.38672 10.8125 3.38672 12C3.38672 13.1875 3.60547 14.3047 4.04297 15.3516C4.49609 16.3984 5.11328 17.3125 5.89453 18.0938C6.67578 18.875 7.58984 19.4922 8.63672 19.9453C9.68359 20.3984 10.8086 20.625 12.0117 20.625C13.1992 20.625 14.3164 20.3984 15.3633 19.9453C16.4102 19.4922 17.3242 18.875 18.1055 18.0938C18.8867 17.3125 19.5039 16.3984 19.957 15.3516C20.4102 14.3047 20.6367 13.1875 20.6367 12Z" fill="black"/>
</svg>
