<svg width="24" height="24" viewBox="0 0 24 24" fill="none" xmlns="http://www.w3.org/2000/svg">
<path d="M11.9883 2.50781C13.3008 2.50781 14.5352 2.75781 15.6914 3.25781C16.8477 3.74219 17.8555 4.41406 18.7148 5.27344C19.5742 6.13281 20.2539 7.14062 20.7539 8.29688C21.2539 9.45312 21.5039 10.6875 21.5039 12C21.5039 13.3125 21.2539 14.5469 20.7539 15.7031C20.2539 16.8594 19.5742 17.8672 18.7148 18.7266C17.8555 19.5859 16.8477 20.2578 15.6914 20.7422C14.5352 21.2422 13.3008 21.4922 11.9883 21.4922C10.6758 21.4922 9.44922 21.2422 8.30859 20.7422C7.15234 20.2578 6.14453 19.5859 5.28516 18.7266C4.42578 17.8672 3.74609 16.8594 3.24609 15.7031C2.74609 14.5469 2.49609 13.3125 2.49609 12C2.49609 10.6875 2.74609 9.45312 3.24609 8.29688C3.74609 7.14062 4.42578 6.13281 5.28516 5.27344C6.14453 4.41406 7.15234 3.74219 8.30859 3.25781C9.44922 2.75781 10.6758 2.50781 11.9883 2.50781ZM12.6914 16.8047V14.8594H10.6758V16.8047H12.6914ZM13.957 11.6953C14.2695 11.4609 14.5195 11.1719 14.707 10.8281C14.8945 10.4688 15.0039 10.0781 15.0352 9.65625C15.0352 8.96875 14.7852 8.40625 14.2852 7.96875C13.7852 7.51562 13.0664 7.28906 12.1289 7.28906C11.1914 7.28906 10.4258 7.54688 9.83203 8.0625C9.23828 8.57812 8.91797 9.28906 8.87109 10.1953H10.7227C10.7539 9.77344 10.8867 9.44531 11.1211 9.21094C11.3555 8.97656 11.6523 8.85938 12.0117 8.85938C12.0273 8.84375 12.043 8.83594 12.0586 8.83594C12.0898 8.83594 12.1133 8.83594 12.1289 8.83594C12.3789 8.83594 12.5898 8.92188 12.7617 9.09375C12.9336 9.26562 13.0195 9.47656 13.0195 9.72656C13.0195 9.74219 13.0195 9.75781 13.0195 9.77344C13.0195 9.78906 13.0195 9.80469 13.0195 9.82031C13.0195 10.0859 12.9258 10.3281 12.7383 10.5469C12.5664 10.7656 12.3633 10.9922 12.1289 11.2266C11.8164 11.5234 11.5195 11.8516 11.2383 12.2109C10.957 12.5547 10.8164 12.9844 10.8164 13.5V13.875H12.5742V13.5469C12.6211 13.1875 12.7852 12.8672 13.0664 12.5859C13.3477 12.3047 13.6445 12.0078 13.957 11.6953Z" fill="black"/>
</svg>
