<svg width="24" height="24" viewBox="0 0 24 24" fill="none" xmlns="http://www.w3.org/2000/svg">
<g clip-path="url(#clip0_6014_3185)">
<path d="M4.49818 9.80368V12.9699H15.5941V23.5523H0.790039V12.9699H3.18607V9.80368C3.18607 8.41551 3.67098 7.23651 4.6408 6.26668C5.62964 5.29686 6.81815 4.81195 8.20632 4.81195C9.57548 4.81195 10.745 5.29686 11.7148 6.26668C12.7036 7.23651 13.1981 8.41551 13.1981 9.80368V10.203H11.8859V9.80368C11.8859 9.29025 11.7909 8.81484 11.6007 8.37747C11.4105 7.92109 11.1443 7.52175 10.802 7.17946C10.4787 6.85618 10.0889 6.59947 9.63253 6.40931C9.19516 6.20013 8.71976 6.09554 8.20632 6.09554C7.69289 6.09554 7.20798 6.20013 6.75159 6.40931C6.31422 6.59947 5.92439 6.85618 5.5821 7.17946C5.23981 7.52175 4.97358 7.92109 4.78342 8.37747C4.59326 8.81484 4.49818 9.29025 4.49818 9.80368ZM8.20632 15.6797C7.7119 15.6797 7.29355 15.8603 6.95126 16.2216C6.60897 16.5639 6.43782 16.9823 6.43782 17.4767C6.43782 17.7809 6.50438 18.0662 6.63749 18.3324C6.78962 18.5796 6.98929 18.7793 7.2365 18.9314V20.9566H9.20467V18.9314C9.43286 18.7793 9.61352 18.5796 9.74663 18.3324C9.89876 18.0662 9.97482 17.7809 9.97482 17.4767C9.97482 16.9823 9.80368 16.5639 9.46139 16.2216C9.1191 15.8603 8.70074 15.6797 8.20632 15.6797ZM17.4767 9.2332L22.8677 7.77847L22.4684 6.32373L17.0773 7.77847L17.4767 9.2332ZM20.0153 1.4461L18.8744 0.447754L15.2233 4.66933L16.3642 5.66768L20.0153 1.4461ZM23.21 13.2266L17.9331 11.4296L17.4482 12.8558L22.7251 14.6528L23.21 13.2266Z" fill="black"/>
</g>
<defs>
<clipPath id="clip0_6014_3185">
<rect width="24" height="24" fill="white"/>
</clipPath>
</defs>
</svg>
