<svg width="24" height="24" viewBox="0 0 24 24" fill="none" xmlns="http://www.w3.org/2000/svg">
<path d="M13.3359 17.7188C13.3359 17.3594 13.2109 17.0547 12.9609 16.8047C12.7109 16.5547 12.4141 16.4297 12.0703 16.4297C11.7109 16.4297 11.4062 16.5547 11.1562 16.8047C10.9219 17.0547 10.8047 17.3594 10.8047 17.7188C10.8047 18.0625 10.9219 18.3594 11.1562 18.6094C11.4062 18.8594 11.7109 18.9844 12.0703 18.9844C12.4141 18.9844 12.7109 18.8594 12.9609 18.6094C13.2109 18.3594 13.3359 18.0625 13.3359 17.7188ZM12.0234 5.01562C12.9766 5.01562 13.9062 5.11719 14.8125 5.32031C15.7188 5.50781 16.5781 5.78906 17.3906 6.16406C18.2188 6.53906 19 6.98438 19.7344 7.5C20.4531 8.03125 21.1172 8.625 21.7266 9.28125L20.625 10.2891H20.6016C20.0703 9.71094 19.4844 9.1875 18.8438 8.71875C18.2031 8.25 17.5156 7.85156 16.7812 7.52344C16.0625 7.19531 15.2969 6.94531 14.4844 6.77344C13.6875 6.60156 12.8672 6.51562 12.0234 6.51562C11.1641 6.51562 10.3281 6.60156 9.51562 6.77344C8.71875 6.96094 7.95312 7.21875 7.21875 7.54688C6.48438 7.875 5.79688 8.27344 5.15625 8.74219C4.51562 9.21094 3.92188 9.74219 3.375 10.3359L2.27344 9.30469C2.88281 8.64844 3.55469 8.05469 4.28906 7.52344C5.00781 6.99219 5.78125 6.54688 6.60938 6.1875C7.4375 5.8125 8.30469 5.52344 9.21094 5.32031C10.1172 5.11719 11.0547 5.01562 12.0234 5.01562ZM12.0234 8.78906C12.7266 8.78906 13.4062 8.86719 14.0625 9.02344C14.7344 9.17969 15.3594 9.40625 15.9375 9.70312C16.5312 9.98438 17.0859 10.3281 17.6016 10.7344C18.1172 11.1562 18.5781 11.6172 18.9844 12.1172L17.8359 13.0547H17.8125C17.125 12.2109 16.2812 11.5391 15.2812 11.0391C14.2812 10.5391 13.1953 10.2891 12.0234 10.2891C10.8359 10.2891 9.73438 10.5391 8.71875 11.0391C7.71875 11.5391 6.875 12.2188 6.1875 13.0781L5.01562 12.1406L5.03906 12.1172C5.44531 11.6172 5.90625 11.1562 6.42188 10.7344C6.9375 10.3281 7.48438 9.98438 8.0625 9.70312C8.65625 9.40625 9.28906 9.17969 9.96094 9.02344C10.6172 8.86719 11.2969 8.78906 12 8.78906C12 8.78906 12.0078 8.78906 12.0234 8.78906ZM12.0234 12.9141C12.8516 12.9141 13.6094 13.1094 14.2969 13.5C15 13.8906 15.5625 14.4141 15.9844 15.0703L14.7188 15.8906V15.8672C14.4375 15.4297 14.0547 15.0781 13.5703 14.8125C13.1016 14.5469 12.5859 14.4141 12.0234 14.4141C11.4453 14.4141 10.9141 14.5547 10.4297 14.8359C9.96094 15.1016 9.58594 15.4609 9.30469 15.9141L8.03906 15.0938V15.0703C8.46094 14.4297 9.01562 13.9141 9.70312 13.5234C10.4062 13.1172 11.1719 12.9141 12 12.9141C12.0156 12.9141 12.0234 12.9141 12.0234 12.9141Z" fill="black"/>
</svg>
